<?xml version="1.0" encoding="utf-8"?>
<!-- Created with Inkscape (http://www.inkscape.org/) -->
<svg width="500" height="500" version="1.2" viewBox="0 0 500 500" baseProfile="tiny-ps" xmlns="http://www.w3.org/2000/svg">
  <title>JDJ_Consulting_Logo</title>
  <path d="m0 250v-250h500v500h-500zm78.027 20.5c10.145-10.175 18.936-18.5 19.535-18.5 0.59892 0 6.905 5.9625 14.014 13.25l12.925 13.25-11.842 0.61002-7.1024-7.055c-3.9063-3.8803-7.5348-7.055-8.0632-7.055-1.1335 0-23.492 22.113-23.492 23.234 0 0.42147 3.0234 0.76631 6.7186 0.76631h6.7186l10.132-10.006 9.8557 10.006h37.575v-2.2578c0-1.6142-6.7731-9.0265-23.759-26.001l-23.759-23.744-17.981 18.001c-9.8893 9.9008-18.323 18.001-18.741 18.001-0.41823 0-0.76042-2.5832-0.76042-5.7404v-5.7404l37.482-37.521 47.518 47.487v-7.6588c0-4.2124-0.3375-7.8165-0.75-8.0091s-2.5063-2.2321-4.6529-4.5321l-3.9029-4.1818 0.10415-9.8211c0.0573-5.4016-0.256-10.404-0.69618-11.116-0.5129-0.82988-2.3809-1.1819-5.2012-0.98008l-4.4009 0.31487-1 10.552-12.986-13.026c-7.1421-7.1642-13.439-13.026-13.992-13.026-0.55364 0-11.473 10.459-24.264 23.242l-23.258 23.242v32.516h9.5812zm85.532-0.9164c1.6613-1.2122 2.0132-3.0285 2.4411-12.598 0.275-6.15 0.18319-11.376-0.20401-11.614-0.38721-0.23784-1.8497-0.14489-3.25 0.20656-2.5019 0.62794-2.546 0.80165-2.546 10.031 0 8.548-0.17004 9.3916-1.893 9.3916-1.0412 0-2.152-0.675-2.4686-1.5-0.33648-0.87686-1.8349-1.5-3.607-1.5-3.6977 0-4.0622 2.4198-0.9588 6.3651 1.6563 2.1057 2.9234 2.6349 6.3089 2.6349 2.33 0 5.1098-0.63738 6.1774-1.4164zm25.251-0.60923c6.7189-4.0964 7.7527-13.074 2.219-19.269-2.6716-2.9908-3.402-3.2393-10.892-3.7058l-8.0288-0.5-0.304 11.769c-0.16719 6.4729-0.15399 12.21 0.0293 12.75 0.18334 0.53962 3.3333 0.97944 7 0.97738 4.9216-3e-3 7.5331-0.532 9.9768-2.0219zm-10.81-10.974c0-6.6936 0.10354-7 2.3651-7 3.554 0 7.6349 3.6614 7.6349 6.8501 0 4.3285-2.5873 7.1499-6.5567 7.1499h-3.4433zm32.961 12.021c1.006-0.53839 2.3264-2.4055 2.9343-4.1492 1.0883-3.1218 1.5746-19.069 0.61087-20.033-0.27187-0.27187-1.8469-0.29579-3.5-0.0532l-3.0057 0.44118v9.3865c0 8.543-0.17011 9.3865-1.893 9.3865-1.0412 0-2.152-0.675-2.4686-1.5-0.33648-0.87686-1.8349-1.5-3.607-1.5-3.6977 0-4.0622 2.4198-0.9588 6.3651 1.6208 2.0606 2.9429 2.6349 6.0657 2.6349 2.1962 0 4.8162-0.4405 5.8222-0.97889zm36.843-1.5093c1.6264-1.3685 3.1938-3.3935 3.4831-4.5 0.44827-1.7142 0.0402-2.0118-2.7578-2.0118-1.8062 0-3.8441 0.675-4.5288 1.5-1.5086 1.8177-7.3752 1.9856-8.7331 0.25-3.0386-3.8836-1.9149-10.042 2.1721-11.904 2.0229-0.92171 2.9927-0.79213 5.2701 0.70419 2.8687 1.8848 8.0313 2.6791 8.846 1.3609 0.2521-0.40791-0.68437-2.0997-2.081-3.7596-7.3851-8.7767-20.954-4.9478-22.218 6.2697-1.0086 8.9486 3.9715 14.568 12.917 14.575 3.5235 3e-3 5.4008-0.60842 7.6303-2.4844zm28.961-0.93501c3.4466-3.1586 3.7353-3.8485 3.7353-8.9267 0-6.5949-2.415-10.464-7.8145-12.519-4.7162-1.795-9.9343-0.77438-13.828 2.7047-5.8832 5.2567-4.6981 17.003 2.088 20.694 1.405 0.76423 4.6987 1.4075 7.3193 1.4296 4.0597 0.0341 5.3174-0.46647 8.5-3.3831zm-13.74-4.0476c-2.1858-2.6338-1.6931-8.5693 0.88468-10.657 2.982-2.4147 5.59-2.3736 8.091 0.12738 2.4258 2.4258 2.6629 8.1942 0.42857 10.429-1.9819 1.9819-7.7914 2.0441-9.4043 0.10071zm28.182 0.30558 0.29381-7.1651 4.758 7.1651c4.3897 6.6106 5.0282 7.1651 8.25 7.1651h3.492v-12.333c0-6.7833-0.22244-12.556-0.49431-12.828s-1.8469-0.29579-3.5-0.0532l-3.0057 0.44118-6e-3 14.273-4.9309-7.4093c-4.2548-6.3934-5.3443-7.4217-7.9454-7.5l-3.0144-0.0907-0.60416 25.504 6.4124-4e-3zm37.339 4.7106c2.5279-2.5279 3.1258-5.9357 1.4941-8.5157-0.51141-0.80864-3.2767-2.6086-6.1452-4-2.8684-1.3914-5.1609-2.9797-5.0945-3.5297 0.16477-1.3634 4.2001-1.9106 4.2001-0.56955 0 0.58825 1.7579 1.0696 3.9064 1.0696 3.3705 0 3.837-0.26549 3.4003-1.9352-0.94215-3.6028-4.2234-5.5648-9.3067-5.5648-6.5161 0-9.205 2.4195-8.7978 7.9164 0.30913 4.1727 0.66897 4.5115 8.2978 7.8125 1.65 0.71394 3 1.9608 3 2.7709 0 2.0721-3.6205 2.5363-4.7024 0.60296-0.50673-0.90548-2.1804-1.6027-3.8472-1.6027-2.2641 0-2.9503 0.45611-2.9503 1.961 0 5.9294 11.672 8.458 16.545 3.5844zm24.531-0.46853c2.8342-2.8342 2.9231-3.222 2.9231-12.75v-9.8269h-6v7.8157c0 8.9669-1.0465 11.684-4.5 11.684-3.4642 0-4.5-2.72-4.5-11.817v-7.9489l-6 0.24521v9.6839c0 8.9592 0.19374 9.9141 2.5889 12.761 2.2537 2.6784 3.2347 3.0767 7.5769 3.0767 4.1798 0 5.4617-0.47367 7.9111-2.9231zm21.923 0.42308c0-2.25-0.4-2.5-4-2.5h-4v-20.667h-6v25.667h7c6.8 0 7-0.0714 7-2.5zm15-7.5v-10h3.5c3.0667 0 3.5-0.30952 3.5-2.5 0-1.375-0.5625-2.5184-1.25-2.5408-3.8034-0.12418-15.502-0.17677-17-0.0764-1.1687 0.0783-1.75 0.94762-1.75 2.6172 0 2.1905 0.43333 2.5 3.5 2.5h3.5v20h6zm16.78-2.75-0.27988-12.75-6 0.01-0.27988 12.745-0.27987 12.745h7.1195zm11.426 5.5 0.29381-7.25 4.5 7.2092c4.0642 6.511 4.8147 7.2131 7.75 7.25l3.25 0.04081v-25.566l-2.75 0.11615c-2.6947 0.11382-2.7601 0.2654-3.25 7.533l-0.5 7.4169-4.4728-7.1666c-3.8834-6.2223-4.9086-7.2175-7.7806-7.5528-1.8193-0.21239-3.5191-0.17492-3.7773 0.0833-0.25818 0.25816-0.46943 6.0194-0.46943 12.803v12.333h6.9124zm41.259 4.1464c2.9106-2.5555 3.5348-3.7917 3.5348-7 0-4.2409 0.48038-3.9999-8.5-4.2641-4.2048-0.12367-4.5 0.0369-4.5 2.4477 0 2.3041 0.37437 2.5676 3.5 2.4639 1.925-0.0639 3.5 0.14761 3.5 0.46996 0 1.543-2.7201 2.9861-5.6286 2.9861-4.5741 0-6.5403-2.346-6.1729-7.3654 0.2466-3.3695 0.80567-4.3602 3.0706-5.4408 2.3528-1.1226 3.2404-1.0861 5.9036 0.24253 3.5933 1.7926 8.8273 2.0812 8.8273 0.4868 0-2.1785-5.8071-6.7963-9.3925-7.4689-10.773-2.021-18.878 8.8514-14.102 18.916 2.0497 4.3194 6.0422 6.5707 11.71 6.6027 3.8694 0.0218 5.3493-0.53012 8.25-3.077z" fill="#fdfdfd" />
  <path d="m50.218 275.25 0.21837-13.75 0.62131 26.5h4.2311c4.1564 0 4.5574-0.32664 22.711-18.5 10.164-10.175 18.94-18.5 19.503-18.5s7.3115 6.3 14.997 14 13.661 14 13.278 14-6.6319-6.075-13.888-13.5-13.694-13.5-14.305-13.5c-0.6116 0-9.4126 8.325-19.558 18.5l-18.446 18.5h-9.5812zm23.782 12.984c0-1.1522 22.375-23.234 23.542-23.234 0.55614 0 4.137 3.15 7.9575 7s6.5197 7 5.9983 7c-0.52145 0-3.9434-2.9723-7.6043-6.6052l-6.6562-6.6052-21.361 21.71 5.4393 0.29625c5.1304 0.27943 5.6592 0.0792 9.3116-3.526 7.0437-6.9528 6.5322-6.8991 12.347-1.2942l5.2125 5.024h17.906c16.25 0 17.906-0.1587 17.906-1.7155 0-1.8016-44.726-47.284-46.497-47.284-0.56301 0-9.0895 8.0752-18.948 17.945-9.8583 9.8697-18.291 17.718-18.74 17.441-0.44848-0.27717-0.81542-3.3781-0.81542-6.891v-6.387l19.048-18.804c10.477-10.342 19.231-18.971 19.454-19.174 0.22292-0.20368 10.513 9.8088 22.868 22.25 12.354 12.441 22.725 22.62 23.046 22.62s0.58409-2.347 0.58409-5.2156c0-4.8567-0.31738-5.5379-4.6116-9.8977l-4.6116-4.682-0.13837-10.852-0.13838-10.852h-8l-0.30226 5.25c-0.1936 3.3627-0.75019 5.25-1.5483 5.25-0.68532 0-5.7904-4.6125-11.345-10.25s-11.41-11.49-13.013-13.007l-2.9147-2.7566-23.126 23.064c-12.719 12.685-23.327 23.826-23.572 24.757-0.35602 1.3503-0.46973 1.2866-0.56228-0.31534-0.07891-1.3659 7.321-9.4399 23.142-25.25 12.792-12.783 23.711-23.242 24.264-23.242 0.55364 0 6.8501 5.8616 13.992 13.026l12.986 13.026 0.5-5.2759 0.5-5.2759 4.4009-0.31487c2.8204-0.20179 4.6883 0.1502 5.2012 0.98008 0.44018 0.71223 0.75346 5.7145 0.69618 11.116l-0.10415 9.8211 3.9029 4.1818c2.1466 2.3 4.2404 4.3395 4.6529 4.5321s0.75 3.7968 0.75 8.0091v7.6588l-47.518-47.487-37.482 37.521v5.7404c0 3.1572 0.34219 5.7404 0.76042 5.7404 0.41823 0 8.8517-8.1006 18.741-18.001l17.981-18.001 23.759 23.744c16.986 16.975 23.759 24.387 23.759 26.001v2.2578h-37.575l-9.8557-10.006-10.132 10.006h-6.7186c-3.6952 0-6.7186-0.34484-6.7186-0.76631z" fill="#ec9065" />
  <path d="m307 258.3c-0.27266-7.2619-0.14378-12.85 0.28639-12.418 0.43017 0.4321 0.65325 6.3737 0.49573 13.204l-0.28639 12.418zm104.18 0.51254c-0.0991-6.98 0.15725-12.901 0.56975-13.158s0.62939 3.4292 0.48198 8.191c-0.49466 15.979-0.87014 17.752-1.0517 4.9669zm-181.31 8.441c-1.2439-1.5861-1.2085-1.6214 0.37756-0.37756 1.6658 1.3064 2.1955 2.1276 1.3724 2.1276-0.20765 0-0.99515-0.7875-1.75-1.75zm170.3-9.441c-0.0961-6.43 0.16279-11.901 0.57529-12.158 0.4125-0.25679 0.62877 3.2042 0.4806 7.691-0.48547 14.701-0.87814 16.362-1.0559 4.4669zm-220.91 7.498c0.97297-0.25354 2.323-0.23687 3 0.0371 0.67703 0.27393-0.11903 0.48137-1.769 0.46099-1.65-0.0204-2.2039-0.2445-1.231-0.49804zm59.543 0.01c0.72187-0.28887 1.5844-0.25335 1.9167 0.0789 0.33229 0.33229-0.25834 0.56864-1.3125 0.52522-1.165-0.048-1.4019-0.28494-0.60417-0.60416zm27.938 0.0208c0.6875-0.27741 1.8125-0.27741 2.5 0s0.125 0.50439-1.25 0.50439-1.9375-0.22698-1.25-0.50439zm78.062-0.0208c0.72187-0.28887 1.5844-0.25335 1.9167 0.0789 0.33229 0.33229-0.25834 0.56864-1.3125 0.52522-1.165-0.048-1.4019-0.28494-0.60417-0.60416zm105.46-0.01c0.97297-0.25354 2.323-0.23687 3 0.0371 0.67703 0.27393-0.11903 0.48137-1.769 0.46099-1.65-0.0204-2.2039-0.2445-1.231-0.49804zm-135.27-1.307-3.5-0.73672 3.191-0.13164c1.755-0.0724 3.4691 0.31836 3.809 0.86836s0.47898 0.94076 0.30902 0.86836-1.884-0.46317-3.809-0.86836zm-163-1-3.5-0.73672 3.191-0.13164c1.755-0.0724 3.4691 0.31836 3.809 0.86836s0.47898 0.94076 0.30902 0.86836-1.884-0.46317-3.809-0.86836zm48 0-3.5-0.73672 3.191-0.13164c1.755-0.0724 3.4691 0.31836 3.809 0.86836s0.47898 0.94076 0.30902 0.86836-1.884-0.46317-3.809-0.86836zm13.993-8.2045c-0.27111-5.3375-0.13687-9.3464 0.29832-8.9088 0.43518 0.43768 0.657 4.8047 0.49293 9.7045l-0.29832 8.9088zm239.82 6.5214c0.72187-0.28887 1.5844-0.25335 1.9167 0.0789 0.33229 0.33229-0.25834 0.56864-1.3125 0.52522-1.165-0.048-1.4019-0.28494-0.60417-0.60416zm-259.62-2.8169c0.0204-1.65 0.2445-2.2039 0.49804-1.231s0.23687 2.323-0.0371 3c-0.27393 0.67703-0.48137-0.11903-0.46099-1.769zm79.884-0.0833c0.048-1.165 0.28494-1.4019 0.60416-0.60417 0.28887 0.72187 0.25335 1.5844-0.0789 1.9167-0.33229 0.33229-0.56864-0.25834-0.52522-1.3125zm170 0c0.048-1.165 0.28494-1.4019 0.60416-0.60417 0.28887 0.72187 0.25335 1.5844-0.0789 1.9167-0.33229 0.33229-0.56864-0.25834-0.52522-1.3125zm-131.21-1.1667c-1.2439-1.5861-1.2085-1.6214 0.37756-0.37756 1.6658 1.3064 2.1955 2.1276 1.3724 2.1276-0.20765 0-0.99515-0.7875-1.75-1.75zm5.896-6.4184c0.5811-0.5811 1.6468-0.85979 2.3683-0.61931 0.74895 0.24965 0.29565 0.70294-1.0566 1.0566-1.6634 0.43497-2.0538 0.30483-1.3117-0.43724zm-42.363-2.0816-1.905-2.25 2.25 1.905c1.2375 1.0477 2.25 2.0602 2.25 2.25 0 0.80025-0.80479 0.20945-2.595-1.905zm-111.9-2.75c-1.6304-0.70061-1.6875-0.87242-0.30902-0.92971 0.93004-0.0387 1.9691 0.37971 2.309 0.92971 0.71066 1.1499 0.67591 1.1499-2 0zm73.769-0.69299c0.97297-0.25354 2.323-0.23687 3 0.0371 0.67703 0.27393-0.11903 0.48137-1.769 0.46099-1.65-0.0204-2.2039-0.2445-1.231-0.49804zm165.54 0.01c0.72187-0.28887 1.5844-0.25335 1.9167 0.0789 0.33229 0.33229-0.25834 0.56864-1.3125 0.52522-1.165-0.048-1.4019-0.28494-0.60417-0.60416zm45.438-6e-3c0.9625-0.25152 2.5375-0.25152 3.5 0 0.9625 0.25153 0.175 0.45733-1.75 0.45733s-2.7125-0.2058-1.75-0.45733z" fill="#7587a2" />
  <path d="m51.5 287.5c0.55-0.18654 2.6061-0.60613 4.569-0.93242 2.6998-0.44877 5.5616-2.5226 11.75-8.5146 4.4995-4.3567 8.2126-8.2891 8.2512-8.7386 0.03865-0.44951 3.5972-3.9673 7.9078-7.8173s7.879-7.5625 7.9297-8.25c0.05071-0.6875 0.78133-1.25 1.6236-1.25 0.84226 0 1.7904-0.675 2.107-1.5 0.9416-2.4538 3.2557-1.7269 6.7922 2.1334 1.841 2.0096 3.8242 3.3271 4.4376 2.9481 0.71034-0.43901 0.8866-0.10598 0.49039 0.92652-0.40985 1.0681 0.59709 2.7253 2.9846 4.9122 1.9817 1.8152 3.8402 3.0632 4.13 2.7734 0.2898-0.2898 0.5269 0.19277 0.5269 1.0724 0 0.8796 0.9 1.8849 2 2.234s2 1.0723 2 1.607c0 0.53471 1.8 2.7366 4 4.893s4 4.38 4 4.9414c0 1.5903-4.4938 2.3356-11.17 1.8527-5.1941-0.37571-6.386-0.83747-8.047-3.1176-1.0723-1.4721-2.5872-2.6765-3.3663-2.6765-0.77912 0-1.4166-0.64436-1.4166-1.4319 0-0.78754-1.3703-2.4077-3.0452-3.6002l-3.0452-2.1684-7.0148 7.0988c-4.189 4.2391-6.727 7.5644-6.3003 8.2548 0.45231 0.73185 0.27478 0.88428-0.48385 0.41542-1.2425-0.76789-4.1107 1.0142-4.1107 2.554 0 0.48266 1.5363 0.87756 3.4139 0.87756 2.7273 0 4.4737-1.0055 8.6839-5 2.8985-2.75 6.0494-5 7.0021-5s3.1594 1.8021 4.9039 4.0048c1.7445 2.2026 3.5823 3.751 4.084 3.441 0.50171-0.31008 0.9122 0.13778 0.9122 0.99524 0 1.3526 2.3167 1.559 17.5 1.559 12.128 0 17.5-0.33984 17.5-1.107 0-0.60884-0.675-0.84797-1.5-0.53138-1.0076 0.38663-1.5-0.0454-1.5-1.3161 0-2.4185-5.5835-8.0455-7.9833-8.0455-1.2587 0-1.6849-0.55286-1.366-1.7721 0.27483-1.0509-0.57719-2.7497-2.0936-4.1743-1.4064-1.3212-2.557-2.0369-2.557-1.5904s-1.3918-0.93756-3.0929-3.0757c-1.7011-2.1381-3.6136-3.8994-4.25-3.9139-1.9446-0.0444-3.786-1.5909-3.3522-2.8152 0.52214-1.4735-14.139-15.879-15.38-15.112-0.50873 0.31442-0.92497-0.10334-0.92497-0.92834s-0.38784-1.7397-0.86187-2.0327c-0.95418-0.58971-19.138 16.956-19.138 18.467 0 0.52134-0.43909 0.9479-0.97575 0.9479s-2.4492 1.6509-4.25 3.6686-4.1403 4.3802-5.1987 5.25c-1.0585 0.86979-3.1725 2.8935-4.6978 4.4972-4.1323 4.3445-5.8777 2.3936-5.8777-6.57v-6.9094l17.75-17.808c15.487-15.538 20.641-20.128 22.601-20.128 0.26514 0 10.42 9.9838 22.566 22.186l22.084 22.186v-4.6029c0-2.5316-0.38729-4.7529-0.86064-4.9362-0.47335-0.18333-2.7517-2.5309-5.063-5.2169-3.2223-3.7447-4.1537-5.6104-3.994-8 0.11459-1.714 0.14292-6.1539 0.063-9.8664l-0.1454-6.75h-3.064c-2.7279 0-3.0404 0.30162-2.8492 2.75 0.63224 8.0955-1.3052 11.172-4.9552 7.8691-0.98665-0.89291-2.167-1.285-2.6231-0.87128-0.45604 0.4137-0.50284 0.18543-0.104-0.50726 0.46767-0.81221-3.1673-5.1622-10.236-12.25-6.0289-6.0448-11.287-10.991-11.686-10.991-1.3141 0-13.482 12.359-13.482 13.693 0 0.71873-0.57457 1.3068-1.2768 1.3068-1.5825 0-14.214 12.829-15.078 15.313-0.34686 0.99736-1.016 1.5752-1.487 1.2842s-3.8636 2.6659-7.5392 6.5711c-3.6756 3.9052-6.9041 6.8792-7.1744 6.6089-0.27031-0.2703 9.9539-10.909 22.721-23.641l23.212-23.15 2.9147 2.7566c1.6031 1.5162 7.4591 7.3691 13.013 13.007s10.659 10.25 11.345 10.25c0.7981 0 1.3547-1.8873 1.5483-5.25l0.30226-5.25h8l0.13838 10.852 0.13837 10.852 4.6116 4.682c4.2942 4.3598 4.6116 5.041 4.6116 9.8977 0 2.8686-0.26284 5.2156-0.58409 5.2156s-10.692-10.179-23.046-22.62c-12.354-12.441-22.645-22.454-22.868-22.25-0.22292 0.20367-8.9771 8.8321-19.454 19.174l-19.048 18.804v6.387c0 3.5129 0.36694 6.6138 0.81542 6.891 0.44848 0.27718 8.8813-7.5713 18.74-17.441 9.8583-9.8697 18.385-17.945 18.948-17.945 1.7716 0 46.497 45.483 46.497 47.284 0 1.5568-1.6565 1.7155-17.906 1.7155h-17.906l-5.2125-5.024c-5.8153-5.605-5.3037-5.6586-12.347 1.2942-3.6524 3.6052-4.1812 3.8055-9.3116 3.526l-5.4393-0.29625 21.361-21.71 13.312 13.21h15.923l-13.973-14c-7.6853-7.7-14.434-14-14.997-14s-9.3394 8.325-19.503 18.5l-18.48 18.5-4.5101-0.079c-2.4806-0.04337-4.0601-0.23152-3.5101-0.41805zm0.12194-3.3283c-0.4425-1.279-0.53846-2.5914-0.21324-2.9167 1.0366-1.0366 1.7652 0.49191 1.3854 2.9062l-0.36756 2.3359zm8.3781-3.7337c0-0.85746 0.45-1.2809 1-0.94098s1 1.0415 1 1.559-0.45 0.94098-1 0.94098-1-0.70156-1-1.559zm-8.8507-8.941c-0.01724-3.8201 0.18342-4.4891 0.85033-2.8351 0.48661 1.2068 0.49659 3.4195 0.02257 5-0.73474 2.4497-0.8534 2.1555-0.8729-2.1649zm-1.1493-10.441c0-0.51754 0.44485-1.2159 0.98855-1.5519 0.56686-0.35034 0.73451 0.0511 0.39301 0.94098-0.66479 1.7324-1.3816 2.0494-1.3816 0.61096z" fill="#f26628" />
  <path d="m51.015 285.25c0.013086-1.4956 0.15626-1.5319 0.98469-0.25 0.7594 1.1751 0.97269 0.92237 0.98469-1.1667 0.0084-1.4667-0.52905-2.8481-1.1944-3.0699-0.92998-0.31-0.95216-1.5287-0.09591-5.2705 0.73768-3.2237 0.78894-5.7217 0.1518-7.3975-2.1307-5.6042-0.75341-9.1159 6.5738-16.761 3.8131-3.9787 7.3067-7.0031 7.7635-6.7207s1.1144-0.30271 1.4612-1.3001c0.86413-2.4847 13.496-15.313 15.078-15.313 0.70225 0 1.2768-0.58805 1.2768-1.3068 0-1.3346 12.168-13.693 13.482-13.693 0.39832 0 5.6569 4.9458 11.686 10.991 7.0691 7.0878 10.704 11.438 10.236 12.25-0.39884 0.69269-0.35204 0.92096 0.104 0.50726 0.45605-0.4137 1.6364-0.0216 2.6231 0.87128 3.65 3.3032 5.5875 0.22636 4.9552-7.8691-0.19121-2.4484 0.12129-2.75 2.8492-2.75h3.064l0.14537 6.75c0.0799 3.7125 0.0516 8.1524-0.063 9.8664-0.15974 2.3896 0.7717 4.2553 3.994 8 2.3113 2.686 4.5896 5.0336 5.063 5.2169 0.47335 0.18334 0.86064 2.4046 0.86064 4.9362v4.6029l-22.084-22.186c-12.146-12.202-22.301-22.186-22.566-22.186-1.9595 0-7.1139 4.5904-22.601 20.128l-17.75 17.808v6.9094c0 8.9636 1.7454 10.915 5.8777 6.57 1.5253-1.6037 3.6394-3.6274 4.6978-4.4972 1.0585-0.86979 3.3979-3.2323 5.1987-5.25s3.7133-3.6686 4.25-3.6686 0.97575-0.42656 0.97575-0.9479c0-1.5104 18.184-19.056 19.138-18.467 0.47403 0.29297 0.86187 1.2077 0.86187 2.0327s0.41624 1.2428 0.92497 0.92834c1.2411-0.76705 15.902 13.638 15.38 15.112-0.43384 1.2243 1.4076 2.7708 3.3522 2.8152 0.6364 0.0145 2.5489 1.7758 4.25 3.9139 1.7011 2.1381 3.0929 3.5222 3.0929 3.0757s1.1507 0.26918 2.557 1.5904c1.5164 1.4246 2.3684 3.1234 2.0936 4.1743-0.31883 1.2192 0.10734 1.7721 1.366 1.7721 2.3998 0 7.9833 5.627 7.9833 8.0455 0 1.2707 0.49244 1.7027 1.5 1.3161 0.825-0.31659 1.5-0.0775 1.5 0.53138 0 0.76715-5.3724 1.107-17.5 1.107-15.183 0-17.5-0.20639-17.5-1.559 0-0.85746-0.41049-1.3053-0.9122-0.99524-0.50172 0.31007-2.3395-1.2384-4.084-3.441-1.7445-2.2026-3.9513-4.0048-4.9039-4.0048s-4.1036 2.25-7.0021 5c-4.2102 3.9945-5.9566 5-8.6839 5-1.8776 0-3.4139-0.3949-3.4139-0.87756 0-1.5398 2.8682-3.3219 4.1107-2.554 0.75863 0.46886 0.93617 0.31643 0.48385-0.41542-0.42665-0.69034 2.1113-4.0156 6.3003-8.2548l7.0148-7.0988 3.0452 2.1684c1.6748 1.1926 3.0452 2.8127 3.0452 3.6002 0 0.78755 0.63747 1.4319 1.4166 1.4319 0.77913 0 2.294 1.2044 3.3663 2.6765 1.6609 2.2801 2.8528 2.7418 8.047 3.1176 6.6763 0.48292 11.17-0.26244 11.17-1.8527 0-0.5613-1.8-2.7849-4-4.9414s-4-4.3583-4-4.893c0-0.53472-0.9-1.2579-2-1.607s-2-1.3544-2-2.234c0-0.87961-0.2371-1.3622-0.5269-1.0724-0.28979 0.28979-2.1483-0.95824-4.13-2.7734-2.3875-2.1868-3.3944-3.8441-2.9846-4.9122 0.39621-1.0325 0.21995-1.3655-0.49039-0.92652-0.61332 0.37906-2.5966-0.93849-4.4376-2.9481-3.5365-3.8603-5.8506-4.5872-6.7922-2.1334-0.31658 0.825-1.2647 1.5-2.107 1.5-0.84226 0-1.5729 0.5625-1.6236 1.25-0.05071 0.6875-3.6191 4.4-7.9297 8.25s-7.8691 7.3646-7.9078 7.8102c-0.12494 1.4406-15.496 15.876-17.885 16.797-3.8828 1.4965-7.1867 1.1013-7.1696-0.85771zm10.985-4.191c0-0.51754-0.45-1.2191-1-1.559s-1 0.0835-1 0.94098c0 0.85746 0.45 1.559 1 1.559s1-0.42344 1-0.94098z" fill="#fb6219" />
  <path d="m406.39 258.5c2e-3 -7.15 0.16103-9.9438 0.35396-6.2084 0.19293 3.7354 0.19149 9.5854-3e-3 13-0.19468 3.4146-0.35253 0.35841-0.35078-6.7916zm10.954 5c4e-3 -4.4 0.17944-6.0756 0.39069-3.7236 0.21124 2.352 0.20827 5.952-7e-3 8-0.21487 2.048-0.38771 0.12357-0.38408-4.2764zm-218.47 4.75c-1.2439-1.5861-1.2085-1.6214 0.37756-0.37756 1.6658 1.3064 2.1955 2.1276 1.3724 2.1276-0.20765 0-0.99515-0.7875-1.75-1.75zm-9.8724 0.37244c0-0.20765 0.7875-0.99515 1.75-1.75 1.5861-1.2439 1.6214-1.2085 0.37756 0.37756-1.3064 1.6658-2.1276 2.1955-2.1276 1.3724zm58 0c0-0.20765 0.7875-0.99515 1.75-1.75 1.5861-1.2439 1.6214-1.2085 0.37756 0.37756-1.3064 1.6658-2.1276 2.1955-2.1276 1.3724zm121.75-2.3282c1.2375-0.23836 3.2625-0.23836 4.5 0 1.2375 0.23835 0.225 0.43337-2.25 0.43337s-3.4875-0.19502-2.25-0.43337zm-122.5-3.9836c0.9625-0.25152 2.5375-0.25152 3.5 0 0.9625 0.25153 0.175 0.45733-1.75 0.45733s-2.7125-0.2058-1.75-0.45733zm33.945-3.8107c0.0204-1.65 0.2445-2.2039 0.49804-1.231s0.23687 2.323-0.0371 3c-0.27393 0.67703-0.48137-0.11903-0.46099-1.769zm20.59-2.25c0.51815-8.2172 0.93759-8.9948 1.0787-2 0.0749 3.7125-0.20456 6.75-0.62103 6.75-0.41646 0-0.62242-2.1375-0.45768-4.75zm156.46-2.9393c0.9625-0.25152 2.5375-0.25152 3.5 0 0.9625 0.25153 0.175 0.45733-1.75 0.45733s-2.7125-0.2058-1.75-0.45733zm-200.25-2.6882c0-0.20765 0.7875-0.99515 1.75-1.75 1.5861-1.2439 1.6214-1.2085 0.37756 0.37756-1.3064 1.6658-2.1276 2.1955-2.1276 1.3724zm120.37-1.0894c-0.30962-0.80686-0.33103-2.0444-0.0476-2.75 0.28346-0.70564 0.55091-0.299 0.59433 0.90365 0.0612 1.6959 0.80831 2.2772 3.329 2.59l3.25 0.40333-3.2814 0.16003c-2.0772 0.10131-3.488-0.3783-3.8443-1.307zm13.876 0.77768c0.9625-0.25152 2.5375-0.25152 3.5 0 0.9625 0.25153 0.175 0.45733-1.75 0.45733s-2.7125-0.2058-1.75-0.45733z" fill="#5e6f8b" />
  <path d="m160.13 270.21c0.0585-0.3927 0.0187-0.93901-0.0885-1.214-0.63388-1.6259-0.76553-3.947-0.20413-3.5988 0.36422 0.22591 0.53012-4.1594 0.36867-9.7452-0.2051-7.0956 0.0117-9.704 0.71948-8.656 0.7826 1.1588 1.4181 1.2486 2.7936 0.39489 1.6716-1.0375 1.7499-0.53251 1.2805 8.2517-0.28687 5.3683-0.10925 9.3561 0.41667 9.3551 0.50416-9.3e-4 0.61942 0.29555 0.25613 0.65885-0.3633 0.36329-1.6581-0.19921-2.8774-1.25l-2.2169-1.9105 1.7141 2.7199c1.626 2.5801 1.624 2.6861-0.0393 2.0628-1.4888-0.55798-1.5609-0.42018-0.4778 0.91333 1.049 1.2916 1.0068 1.6736-0.238 2.1512-0.83244 0.31944-1.4656 0.25949-1.4071-0.13322zm3.8696-10.155c0-0.51754-0.45-1.2191-1-1.559s-1 0.0835-1 0.94098c0 0.85746 0.45 1.559 1 1.559s1-0.42344 1-0.94098zm13.674 9.5344c-0.51967-1.3542-1.3778-1.664-3.4335-1.2391-1.5074 0.31151-2.2907 0.36026-1.7407 0.10834 0.62308-0.2854 0.81154-4.5744 0.5-11.379-0.35855-7.8314-0.19107-10.663 0.59201-10.011 0.6006 0.50045 1.3959 0.60598 1.7674 0.23452 1.354-1.354 9.509-1.0926 10.052 0.3222 0.28925 0.7538 1.0166 1.3705 1.6163 1.3705 0.6144 0 0.75584-0.54568 0.32401-1.25-0.42151-0.6875 0.33943-0.49869 1.691 0.41958 1.3516 0.91827 2.3593 2.1126 2.2393 2.6541s0.39613 1.4942 1.1468 2.1172c1.8435 1.53 0.84436 4.9969-1.32 4.5801-1.1018-0.21218-1.7501 0.36762-1.8468 1.6516-0.11024 1.4635 0.17241 1.7118 1.0857 0.95385 0.88336-0.73312 1.5647-0.49643 2.3941 0.83171 0.95121 1.5231 0.75771 2.2899-1.0777 4.2703-1.2304 1.3276-2.8458 2.211-3.5898 1.963-0.74411-0.24804-1.0677 0.0102-0.71923 0.57405 0.3484 0.56372 0.012 1.2634-0.74762 1.5549-0.9969 0.38254-1.2267-0.0602-0.82628-1.5916 0.49024-1.8747 0.37529-1.9538-0.98789-0.68044-0.84847 0.79259-1.3259 2.0059-1.061 2.6963 0.30625 0.79807-0.37677 1.2297-1.8753 1.185-2.2093-0.0659-2.2317-0.12413-0.35699-0.92971 1.9367-0.83224 1.9314-0.86165-0.16667-0.92971-1.1917-0.0387-2.3466 0.46946-2.5665 1.1292-0.24151 0.72453-0.67413 0.48456-1.0926-0.60607zm3.8875-2.6931c-1.1494 1.8598 0.67664 1.2205 3.2851-1.1502 1.3616-1.2375 2.1516-1.6875 1.7554-1-0.43735 0.759-0.14466 1.25 0.74513 1.25 1.0104 0 1.3004-0.69855 0.93405-2.25-0.48196-2.0408-0.40354-2.093 0.84362-0.56062 1.1648 1.4312 1.5645 1.4775 2.615 0.30286 0.78135-0.87363 0.87383-1.6128 0.25-1.9984-0.54452-0.33654-0.99004-0.0802-0.99004 0.56958 0 0.88042-0.3822 0.86426-1.5-0.0634-1.9816-1.6446-2.0432-6.4224-0.0731-5.6664 0.78478 0.30115 1.9388-0.0693 2.5646-0.82327 0.88418-1.0654 0.69117-1.6098-0.86619-2.4433-1.458-0.78031-2.1987-0.75722-2.7191 0.0848-0.47384 0.76669-0.27344 0.8842 0.59382 0.3482 0.88503-0.54698 1.0682-0.41934 0.56548 0.39405-0.56934 0.92122-1.0741 0.92873-2.1545 0.0321-1.6162-1.3414-1.9071-2.3508-0.41097-1.4261 0.55 0.33992 1-0.0694 1-0.9096 0-1.0027 0.60137-1.3342 1.75-0.96468 1.4627 0.47053 1.5051 0.39013 0.25836-0.48975-0.95122-0.6713-1.8389-0.70547-2.45-0.0943-0.5271 0.5271-1.3934 0.95836-1.925 0.95836-0.53166 0-0.67057-0.2961-0.30867-0.65799 0.75702-0.75716-1.1358-3.3421-2.4471-3.3421-0.48266 0-0.87756 0.45-0.87756 1s0.3375 0.94671 0.75 0.88158c1.6232-0.25629 2.3414 0.1616 1.7955 1.0448-0.32983 0.53367-1.7816 0.57954-3.4251 0.10821-1.5689-0.44996-3.4754-0.4237-4.2365 0.0584-0.99785 0.63197-1.0352 0.88075-0.13392 0.89179 0.88841 0.0109 1.25 2.202 1.25 7.5743 0 4.8656-0.36213 7.3352-1.0163 6.9309-0.55897-0.34546-0.75742-1.047-0.44098-1.559 0.97192-1.5726-0.21657-1.0311-1.6703 0.76106-0.75484 0.93058-0.86093 1.3855-0.23575 1.011s1.6849-0.0204 2.355 0.78703c0.93575 1.1275 1.6858 1.2178 3.234 0.38922 1.4584-0.78052 1.8278-0.77471 1.336 0.021zm8.4383-11.9c0-0.55 0.47656-1 1.059-1s0.7809 0.45 0.44098 1-0.81648 1-1.059 1-0.44098-0.45-0.44098-1zm-15.311 3.25c-0.25153-0.9625-0.45733-0.175-0.45733 1.75s0.2058 2.7125 0.45733 1.75c0.25152-0.9625 0.25152-2.5375 0-3.5zm1.0012-5.9881c-1.5873-1.5873-1.6905-1.5822-1.6905 0.08283 0 0.97532 0.45 1.4952 1 1.1553s1-0.0665 1 0.60765c0 0.67413 0.31071 0.91497 0.69048 0.53521 0.37976-0.37976-0.0702-1.4512-1-2.381zm29.895 17.6c0.74371-1.2034-1.5866-2.1002-2.8794-1.1082-0.79749 0.61192-1.7992 0.30226-2.9562-0.91391-0.9625-1.0117-1.2734-1.8394-0.69098-1.8394s0.80012-0.41891 0.48369-0.9309c-0.31644-0.512-0.0485-1.2565 0.59549-1.6545 0.78484-0.48506 0.90097-0.28698 0.35226 0.60084-0.59315 0.95974-0.36363 1.1499 0.8335 0.6905 1.0186-0.39088 1.5608-0.16846 1.414 0.58006-0.1309 0.6677 0.31106 1.106 0.98214 0.97396 0.67108-0.13202 1.7062 0.66808 2.3002 1.778 0.59401 1.1099 1.5074 1.7539 2.0298 1.431 0.52241-0.32286 0.94983-0.13843 0.94983 0.40984 0 0.54828-0.86882 0.93143-1.9307 0.85144-1.0619-0.08-1.7296-0.47093-1.4837-0.86876zm29.525-1.0906c-0.52892-1.4298-1.0188-1.729-1.5154-0.92559-0.40358 0.65301-1.1624 0.92241-1.6862 0.59867-0.52382-0.32374 0.0537-1.4033 1.2833-2.399 1.8482-1.4966 2.5886-1.5997 4.2715-0.59488 2.7482 1.6409 4.1473 1.4221 6.0744-0.95014 1.3431-1.6533 1.5293-1.6967 1.0744-0.25-0.30264 0.9625-0.11437 1.75 0.41836 1.75 0.53274 0 0.96862-0.75 0.96862-1.6667 0-1.9864 1.2918-0.95257 1.6222 1.2982 0.17565 1.1968-0.40539 1.452-2.4266 1.0656-2.3423-0.44776-2.4522-0.35787-0.92656 0.7577 1.8876 1.3803 2.4238 3.0915 0.61918 1.9761-0.6115-0.37792-1.5046-0.067-1.9847 0.69098-0.697 1.1004-0.87597 1.0374-0.8882-0.31286-8e-3 -0.93004-0.53484-2.0121-1.1698-2.4045-0.7153-0.44208-0.88306-0.27432-0.44098 0.44098 0.39244 0.63498 0.21041 1.1545-0.40451 1.1545s-0.89765 0.35659-0.6283 0.79241c0.26936 0.43583-0.40325 0.85969-1.4947 0.9419-1.1941 0.0899-2.2957-0.69199-2.766-1.9634zm2.4418 0.31448c-0.31089-0.50302-0.10801-1.067 0.45085-1.2533 0.55885-0.18628 0.18169-0.8598-0.83814-1.4967-1.6414-1.0251-1.8013-0.88121-1.3933 1.2533 0.25352 1.3262 0.88504 2.4113 1.4034 2.4113 0.51835 0 0.68808-0.41157 0.3772-0.91459zm25.433 0.39772c-0.66694-0.80361-1.5314-1.2641-1.9209-1.0234-1.0393 0.64235-4.2471-3.416-3.7845-4.7881 0.21726-0.64445-0.31949-1.7676-1.1928-2.4959-0.99026-0.82585-1.0534-1.0464-0.16783-0.58595 1.0388 0.54007 1.2486 0.29157 0.78138-0.92585-0.39408-1.027-0.14009-1.664 0.6634-1.664 2.0969 0 2.5686 1.0453 1.6096 3.5674-0.55281 1.454-0.52827 2.5902 0.0638 2.9562 0.52898 0.32693 0.99732-0.21964 1.0407-1.2146 0.0463-1.0601 0.28861-1.289 0.58541-0.55279 0.27855 0.69093 0.88693 1.0211 1.352 0.73369s1.1737 0.0473 1.5749 0.74377c0.40118 0.69647 0.3787 0.95024-0.05 0.56393-0.42866-0.38631-1.4008-0.0809-2.1603 0.67857-1.5626 1.5626-1.8625 2.9394-0.45005 2.0665 0.512-0.31644 1.2136-0.11799 1.559 0.44098s1.1067 1.0163 1.6915 1.0163c0.69657 0 0.65635-0.4905-0.11659-1.4218-0.989-1.1917-0.66237-1.3402 2.0178-0.91785 2.0242 0.31902 3.5479 0.0151 4.1519-0.82817 0.7289-1.0177 0.83017-0.94235 0.42902 0.31921-0.54807 1.7236 1.5936 1.9926 3.0575 0.38394 0.42842-0.47077 0.21644-0.53224-0.47106-0.1366-0.76415 0.43975-1.25 0.13633-1.25-0.78066 0-2.3897 1.7934-2.8443 2.4954-0.63255 0.35166 1.108 1.1142 2.0145 1.6944 2.0145 0.69899 0 0.67042-0.46346-0.0846-1.3732-0.62683-0.75529-0.83046-2.1791-0.4525-3.164 0.50872-1.3257 0.34322-1.5782-0.63726-0.97224-0.88782 0.54871-1.0859 0.43258-0.60084-0.35226 0.39798-0.64395 1.1994-0.87676 1.781-0.51734 0.72342 0.44709 0.75115 0.10631 0.0878-1.079-1.3243-2.3664-0.39249-6.7977 1.2934-6.1508 0.84075 0.32263 1.1191-0.02 0.76534-0.942-0.30578-0.79699-0.33101-1.4491-0.056-1.4491 1.5399 0 1.2891 3.079-0.39845 4.8903-1.9114 2.0516-1.2692 3.0914 0.69571 1.1264 0.64436-0.64436 1.0551-0.11544 1.1917 1.5346 0.12073 1.4588-0.41663 2.7577-1.2775 3.0881-0.81725 0.31361-1.2369 0.97305-0.93264 1.4654 0.3043 0.49237 0.0216 0.89522-0.62819 0.89522-0.90325 0-0.90592 0.332-0.0113 1.4099 0.92756 1.1176 0.70795 1.7336-1.0594 2.9715-1.3565 0.95016-2.6489 1.2136-3.3005 0.67278-0.64856-0.53826-1.8355-0.32981-3.0093 0.52847-1.0661 0.77953-2.3883 1.4173-2.9383 1.4173s-0.12649-0.66069 0.94113-1.4682c1.0676-0.8075 1.4108-1.4825 0.76256-1.5-0.64822-0.0175-1.841 0.63065-2.6507 1.4403-1.2907 1.2907-1.6216 1.292-2.6847 0.011zm22.625-2.5652c0.38132-4.4977 0.99809-5.9179 2.57-5.9179 0.67059 0 0.60356 0.55411-0.18146 1.5-0.92769 1.1178-0.94385 1.5-0.0634 1.5 0.64981 0 0.90335 0.45 0.56343 1s-0.17218 1 0.37276 1c1.0587 0 0.89831-4.5623-0.19902-5.6596-0.36101-0.36102-0.0978-1.3728 0.58494-2.2484 1.0943-1.4034 1.037-1.4319-0.48375-0.24025-1.5188 1.1902-1.8761 1.0203-2.9882-1.4206-1.0006-2.1961-1.0058-2.8581-0.0249-3.1851 0.68103-0.22701 1.2382-1.0768 1.2382-1.8884s-0.45-1.1976-1-0.85765c-1.1085 0.6851-1.3818-0.78484-0.33969-1.827 0.85236-0.85237 3.6203 3.0639 2.9416 4.1621-0.28267 0.45737 0.12147 0.83158 0.89808 0.83158s1.1492-0.42531 0.8279-0.94514c-0.60445-0.97801 1.4148-2.6909 3.1721-2.6909 0.55 0 0.37804 0.39391-0.38213 0.87536-1.0846 0.68693-0.92003 1.022 0.76452 1.5567 1.1807 0.37473 1.9056 1.0713 1.6111 1.5479-0.29456 0.47659 0.15337 1.2521 0.9954 1.7233 1.3548 0.75822 1.3609 1.0816 0.0528 2.8115-0.90717 1.1997-1.4904 1.4491-1.5099 0.64568-0.0189-0.77822-0.53866-1.0045-1.2818-0.55804-0.72017 0.43266-0.6142-0.0351 0.25-1.1036 1.1494-1.4211 1.2064-1.9534 0.24377-2.2774-0.69093-0.23254-0.9589-0.90388-0.59549-1.4919 0.39382-0.63721 0.18776-0.77678-0.51008-0.34549-0.64395 0.39798-0.91193 1.1425-0.59549 1.6545 0.31643 0.51199 0.0988 0.9309-0.48369 0.9309-0.65122 0-1.059 2.888-1.059 7.5 0 7.0132-1.0074 9.5291-2.3816 5.9481-0.34149-0.88992-0.17385-1.2913 0.39301-0.94098 0.5437 0.33602 0.98855 0.16236 0.98855-0.38591 0-0.54828-0.85056-0.9328-1.8901-0.85449-1.0396 0.0783-1.6839 0.67982-1.4318 1.3367 0.25207 0.65687 0.0383 1.4539-0.47511 1.7712-0.53848 0.3328-0.78872-1.1297-0.59144-3.4567zm15.389 1.6782c0-1.857 0.0788-1.8705 1.2857-0.22001 1.2094 1.654 1.2857 1.6428 1.2857-0.18894 0-1.9989-1.0722-2.2548-3.3883-0.80865-0.90187 0.56311-1.217 0.33855-1-0.71254 0.17428-0.84413-1e-3 -1.4518-0.39007-1.3504-0.38883 0.10143-1.3568-0.70436-2.1512-1.7907-1.2892-1.7631-1.236-2.1209 0.49545-3.3337 1.7464-1.2233 2.2904-0.9767 5.4601 2.4751 2.2904 2.4942 3.2988 3.1349 2.886 1.8337-0.60789-1.9163-0.58409-1.9209 0.56848-0.11107 0.98036 1.5394 0.9095 2.0532-0.38296 2.7764-0.87225 0.48813-1.3411 1.5256-1.0418 2.3054 0.37148 0.96806-0.11755 1.368-1.5415 1.2608-1.3584-0.10233-2.0856-0.84692-2.0856-2.1354zm-1.1728-7.1974c-1.3879-1.3879-1.6163-1.3908-2.1396-0.0271-0.40144 1.0461-0.12974 1.3516 0.86326 0.97055 0.798-0.30622 1.4491 0.0162 1.4491 0.7176 0 0.70051 0.31071 0.96294 0.69048 0.58318 0.37976-0.37976-9e-3 -1.3897-0.86326-2.2442zm16.312 8.4571c-1.064-0.3936-2.2716-1.3097-2.6836-2.0357-0.60244-1.0617-0.48547-1.0754 0.59768-0.0701 1.8966 1.7604 3.4496 1.561 1.9467-0.25-0.89786-1.0819-0.92301-1.5-0.0902-1.5 0.63507 0 1.5616 1.0125 2.0591 2.25 0.49741 1.2375 0.93291 1.6875 0.96777 1 0.0349-0.6875 0.73839-1.25 1.5634-1.25s1.5-0.55013 1.5-1.2225c0-0.67237 0.7209-0.19327 1.602 1.0647 0.8811 1.258 1.3311 2.5581 1 2.8892s-0.602 0.077-0.602-0.56466c-2e-5 -0.64165-0.70158-1.1666-1.559-1.1666s-1.3405 0.35357-1.0734 0.78571c0.60685 0.9819-2.6456 1.0255-5.2284 0.0701zm26.353 0.22427c0.62419-1.0603 0.41443-1.2582-0.82811-0.78138-0.91522 0.3512-1.664 0.20267-1.664-0.33006 0-0.53274-0.5625-0.85612-1.25-0.71862-0.70455 0.14091-1.3888-0.95739-1.5681-2.517-0.17493-1.5218-0.73743-2.5078-1.25-2.191-0.51257 0.31679-0.93194 0.0513-0.93194-0.59003 0-0.6413 0.675-0.90699 1.5-0.5904 0.91371 0.35062 1.5 2e-3 1.5-0.89301 0-0.80774-0.7875-1.5042-1.75-1.5476-1.0454-0.0472-1.2467-0.28201-0.5-0.58333 0.6875-0.27741 1.2431-2.1544 1.2347-4.171-0.01-2.3869-0.31039-3.2012-0.86072-2.333-0.56078 0.88465-0.80812 0.32486-0.73468-1.6627 0.0644-1.7421 0.88704-3.4824 1.9654-4.1575 1.0201-0.63861 1.5798-0.71632 1.2438-0.17269-0.33598 0.54362-0.19672 1.1393 0.30947 1.3238 1.4469 0.52729 1.6415 8.4685 0.24871 10.147-0.84966 1.0238-0.9149 1.72-0.20244 2.1603 0.73045 0.45144 0.71547 1.2771-0.0491 2.7057-0.86634 1.6188-0.75291 2.4033 0.53346 3.6893 1.0537 1.0534 1.8873 1.2664 2.3476 0.59988 0.39261-0.5684 1.3888-0.99079 2.2138-0.93865 0.825 0.0521 2.0625-0.32539 2.75-0.83898 0.81219-0.60674 1.25-0.54067 1.25 0.18865 0 0.61734-0.53601 1.1224-1.1911 1.1224s-0.31833 0.63821 0.74843 1.4182c1.0668 0.78003 1.6028 1.755 1.1911 2.1667-0.41164 0.41163-0.75532 0.11092-0.76374-0.66824-0.0126-1.1665-0.18652-1.1518-0.98469 0.0833-0.81215 1.2567-0.97186 1.191-0.98469-0.40499-0.0151-1.8733-0.0514-1.8733-2.1872 0-1.1946 1.0478-1.7957 1.266-1.336 0.48505zm26.508-0.49673c0-0.77916-0.5625-1.614-1.25-1.8553s-0.0125-0.44748 1.5-0.45833c1.5125-0.0109 2.75 0.37401 2.75 0.85526s-0.47656 0.875-1.059 0.875-0.7809 0.45-0.44098 1 0.14148 1-0.44098 1-1.059-0.6375-1.059-1.4167zm3.0153 0.7061c0.029-1.4975 1.736-3.5008 2.2547-2.6462 0.28602 0.47122-0.10773 1.437-0.875 2.1462-0.76727 0.70918-1.3882 0.93418-1.3797 0.5zm13.64-0.83461c0.30462-0.79383 0.95671-1.1944 1.4491-0.89006 1.2401 0.76643 1.126 1.1327-0.55385 1.7773-0.96661 0.37092-1.2647 0.0755-0.89522-0.88726zm45.883 0.4833c0.67748-1.0962-2.1626-1.9136-3.1664-0.91131-0.49526 0.49449-1.9154-0.72713-3.2878-2.8282-1.4803-2.2663-1.7708-3.1672-0.75-2.3262 0.98314 0.80995 1.6659 0.9366 1.6659 0.30902 0-0.58488-0.45734-1.3461-1.0163-1.6915-1.4943-0.92352-0.16871-2.4982 1.5483-1.8393 1.2096 0.46416 1.468-0.74637 1.468-6.877 0-6.0188 0.29295-7.4403 1.5333-7.4403 0.97753 0 1.186 0.3473 0.57523 0.95811s-0.0754 1.9097 1.4771 3.5833c1.3394 1.4439 2.2055 3.2245 1.9248 3.957-0.28075 0.73248-0.51045 2.4465-0.51045 3.809 0 1.5022-0.42041 2.2174-1.0682 1.8171-0.5875-0.3631-0.83215-1.2752-0.54368-2.027 0.28848-0.75175 0.055-1.657-0.51894-2.0117-0.5739-0.35469-0.82149-1.4936-0.55021-2.531s0.0392-2.1668-0.51573-2.5097c-1.1376-0.7031-0.56323 9.5829 0.64424 11.537 0.86199 1.3947-1.2794 4.3069-2.5771 3.5048-0.49665-0.30695-0.60465-1.0895-0.23999-1.739 0.50485-0.89918 0.36253-0.90348-0.59655-0.018-1.7631 1.6277-0.55535 3.0871 2.5547 3.0871 1.8498 0 2.2244-0.25386 1.2682-0.85969-1.2197-0.77282-0.5183-1.3003 1.3572-1.0207 0.39271 0.0585 0.45706-0.56317 0.14301-1.3816-0.31405-0.8184-0.0728-1.488 0.53599-1.488 1.3414 0 1.4151 1.9644 0.14888 3.9665-0.5696 0.90061-0.56982 1.8974-5.6e-4 2.5833 0.60963 0.73457 0.43396 1.1169-0.51322 1.1169-0.79207 0-1.2375-0.32785-0.98986-0.72855zm-3.5382-7.3311c0-0.21616-0.69837-0.661-1.5519-0.98855-0.88992-0.34149-1.2913-0.17385-0.94098 0.39301 0.58726 0.95021 2.4929 1.4054 2.4929 0.59554zm20 7.6058c0-0.43295-0.9779-0.86085-2.1731-0.95089-2.8904-0.21772-6.0144-3.4645-6.3596-6.6096-0.15323-1.3959-0.61558-3.0833-1.0274-3.7497-0.44737-0.72386-0.32982-0.95268 0.29198-0.56839 1.3456 0.83162 2.3335-2.869 1.0962-4.1062-0.58755-0.58755 0.0657-2.1366 1.7401-4.1266 1.4744-1.7522 2.9492-2.9174 3.2774-2.5893 0.32814 0.32813-0.0654 1.0152-0.87443 1.5269-1.1344 0.71743-1.1636 0.93382-0.12742 0.94563 0.73899 8e-3 1.5877-0.91811 1.886-2.059 0.53981-2.0642 1.9608-2.133 6.6774-0.32302 0.87609 0.33619 1.5929 0.11311 1.5929-0.49573 0-0.60885 0.43588-1.107 0.96862-1.107 0.53273 0 0.70959 0.675 0.39301 1.5-0.36971 0.96343 0.0204 1.5 1.0904 1.5 1.0047 0 1.3828-0.45829 0.95248-1.1545-0.44563-0.72104-0.27393-0.88282 0.45729-0.4309 0.64395 0.39798 0.94354 1.0914 0.66576 1.5408-0.27779 0.44946 0.43515 1.0631 1.5843 1.3636 1.1492 0.30051 1.8246 0.97479 1.501 1.4984-0.68449 1.1075-6.3102 0.85487-7.3834-0.3316-0.4012-0.44354-0.19804-0.50195 0.45145-0.1298 0.6495 0.37215 1.4344 0.26645 1.7443-0.23489 0.82574-1.3361-2.2934-2.2559-4.2476-1.2526-2.2396 1.1498-4.1989 0.35084-3.5144-1.4331 0.30294-0.78946 0.0261-1.4354-0.6152-1.4354s-0.90711 0.41891-0.59068 0.9309c0.31644 0.512 0.07 1.2432-0.54774 1.625-0.79704 0.4926-0.7292 0.96289 0.23369 1.62 0.90351 0.61659 0.10726 0.77902-2.3835 0.48622-2.0572-0.24182-3.4931-0.0397-3.191 0.4491 0.30211 0.48883 0.04618 0.88878-0.56874 0.88878s-0.82328 0.47693-0.46302 1.0598c0.42538 0.68827 1.0596 0.51951 1.809-0.48134 0.81366-1.0866 1.5964-1.2563 2.654-0.57516 1.0895 0.70164 1.1417 0.97023 0.19098 0.98135-0.71996 8e-3 -1.0341 0.46016-0.69806 1.0039 0.35129 0.5684-0.0535 0.73358-0.95232 0.38866-1.1374-0.43646-1.394-0.15881-0.94199 1.0192 0.34171 0.89048-0.1102 2.7355-1.0042 4.1-1.2535 1.9131-1.3706 2.8892-0.51141 4.2649 1.3423 2.1494 5.7185 4.3691 6.4095 3.2511 0.27157-0.43941-0.63602-1.0825-2.0168-1.429-2.0673-0.51885-2.2868-0.87233-1.2431-2.0017 1.2557-1.3588 3.2176-1.1187 2.3485 0.28744-0.2484 0.40191 0.41926 1.2746 1.4837 1.9394 1.2152 0.7589 1.9353 0.8248 1.9353 0.1771 0-0.56734 1.125-0.2944 2.5 0.60654 1.375 0.90093 2.5 1.1738 2.5 0.60638 0-0.56742-0.54034-1.2118-1.2008-1.4319-0.93432-0.31144-0.93432-0.56491 0-1.1424 0.66041-0.40816 1.2008-0.26555 1.2008 0.31691s0.43588 1.059 0.96862 1.059c0.53273 0 0.72376-0.7875 0.42449-1.75-0.51821-1.6667-0.49054-1.6667 0.58107 0 0.61886 0.9625 1.5632 1.75 2.0986 1.75s0.30995-1.0125-0.50089-2.25-1.5012-2.7-1.5342-3.25c-0.033-0.55-0.80558-1.0019-1.7169-1.0042-1.9443-5e-3 -2.8909-2.0254-1.385-2.9561 0.6473-0.40005 0.79217 6e-3 0.38285 1.0724-0.4577 1.1927-0.28839 1.4872 0.55526 0.96585 0.66756-0.41258 1.9471-0.1489 2.8434 0.58595 1.4242 1.1677 1.5632 1.078 1.1026-0.71213-0.40264-1.5648-0.0305-2.0718 1.5766-2.1481 1.157-0.0549 1.5411 0.11678 0.85361 0.38155-0.6875 0.26478-1.25 0.92047-1.25 1.4571s0.40285 0.72671 0.89522 0.42241c0.49236-0.3043 1.1912 0.21793 1.5528 1.1605 0.3617 0.94258 0.34085 1.397-0.0463 1.0098-1.1761-1.1761-3.3652 2.604-2.2714 3.922 1.0368 1.2492-2.7856 4.674-4.2242 3.7849-0.42236-0.26104-1.0506-0.0173-1.396 0.5417-0.34546 0.55897-1.1641 1.0094-1.8191 1.001-0.81185-0.0104-0.76616-0.28461 0.14355-0.86127 1.0146-0.64317 0.83486-0.97661-0.75-1.3911-1.383-0.36166-2.0846-0.0718-2.0846 0.86126 0 0.77351-0.45 1.4064-1 1.4064s-1-0.35424-1-0.7872zm-295-1.1494c0-0.64981-0.45-0.90335-1-0.56343-0.94854 0.58623-1.1675 0.15611-1.4-2.75-0.055-0.6875-0.55-1.6218-1.1-2.0761-0.59312-0.49-0.38969-0.64258 0.5-0.375 0.825 0.24812 1.3811 0.97665 1.2357 1.619-0.19994 0.8835 0.25551 0.88964 1.8707 0.0252 1.4897-0.79724 1.9295-0.81018 1.4553-0.0428-0.38065 0.61591-9e-3 1.0998 0.84414 1.0998 0.83811 0 2.0633 1.0125 2.7227 2.25 1.0871 2.0402 1.0438 2.122-0.46482 0.87756-1.3344-1.1008-1.9607-1.126-3.1637-0.12756-1.1178 0.92769-1.5 0.94385-1.5 0.0634zm57.663-0.62689c0.5151-1.3424 0.2205-1.5342-1.5115-0.98455-1.535 0.48719-2.1513 0.26213-2.1513-0.78563 0-1.0414 1.0594-1.4384 3.6432-1.3651 2.0038 0.0568 3.1288 0.27476 2.5 0.48435-0.62879 0.2096-1.1432 0.99203-1.1432 1.7387 0 0.7467-0.44485 1.6326-0.98855 1.9686-0.58157 0.35943-0.72514-0.0755-0.34872-1.0564zm114.36 0.0853c-1.0201-1.2292-1.0075-1.8297 0.0656-3.1227 1.5647-1.8853 2.1531-4.6635 0.81218-3.8348-0.51069 0.31562-0.68884 0.96167-0.3959 1.4357s0.0753 1.1445-0.48369 1.4899c-0.55897 0.34546-1.0163-0.0469-1.0163-0.87189 0-0.825 0.49804-1.8078 1.1068-2.184 0.78765-0.48679 0.75071-0.90408-0.12811-1.4472-0.67919-0.41975-0.89718-1.3096-0.48443-1.9774 0.50195-0.81217 1.2458-0.19154 2.2462 1.8742 0.82268 1.6987 1.8691 2.8578 2.3254 2.5758 1.2423-0.76777 0.25588 3.2433-1.3676 5.5611-1.2516 1.7869-1.5646 1.8455-2.6801 0.50141zm36.982 1.0852c0-0.21616 0.69837-0.661 1.5519-0.98855 0.88992-0.34149 1.2913-0.17385 0.94098 0.39301-0.58726 0.95021-2.4929 1.4054-2.4929 0.59554zm43-0.55695c0-0.75209-0.7589-1.0848-1.8333-0.80388-1.1357 0.29701-1.8333-0.0555-1.8333-0.9264 0-0.84552 0.63106-1.1884 1.5833-0.86034 1.3949 0.48058 1.4049 0.39647 0.0833-0.70697-1.1185-0.93394-1.4812-3.3023-1.4262-9.3129 0.0759-8.2811 0.66116-10.498 2.7352-10.361 0.85875 0.0569 0.84229 0.21965-0.059 0.58333-0.6875 0.27741-1.25 0.94344-1.25 1.4801s0.39914 0.729 0.88698 0.4275c0.80437-0.49713 2.2135 20.368 1.4416 21.347-0.18073 0.22916-0.3286-0.16082-0.3286-0.86663zm-1.2943-11.3c-0.23835-1.2375-0.43337-0.225-0.43337 2.25s0.19502 3.4875 0.43337 2.25c0.23836-1.2375 0.23836-3.2625 0-4.5zm-0.0226-6.9375c-0.31922-0.79773-0.55618-0.56078-0.60416 0.60417-0.0434 1.0542 0.19293 1.6448 0.52522 1.3125 0.33229-0.3323 0.36781-1.1948 0.0789-1.9167zm9.3169 18.171c-1.3005-0.82593-1.2814-0.95468 0.14301-0.96796 2.1088-0.0197 3.1676-2.6822 1.3448-3.3816-0.90533-0.34741-1.1931-0.0293-0.82987 0.91724 0.30583 0.79699 0.0362 1.4491-0.59912 1.4491-0.81103 0-1.1051-3.1349-0.98708-10.523 0.13799-8.6382 0.40668-10.325 1.5002-9.4174 0.73266 0.60805 2.2509 0.81394 3.3738 0.45754 1.5761-0.50024 1.9052-0.29234 1.4432 0.91164-0.32917 0.8578-0.97781 1.3252-1.4414 1.0387-0.46362-0.28654-0.65558 0.45194-0.42658 1.641 0.48773 2.5325 1.4245 3.7344 1.6041 2.0581 0.0688-0.64167 0.18125-1.6167 0.25-2.1667 0.30577-2.4461 2.033-1.1985 2.0766 1.5 0.0406 2.5158-0.32423 2.9799-2.2604 2.8754-1.5514-0.0837-2.1399 0.31584-1.7937 1.218 0.28336 0.73842 0.0775 1.6131-0.45744 1.9437-0.53495 0.33062-0.68986 1.0587-0.34425 1.6179 0.34562 0.55921 0.7491 3.055 0.89664 5.5463 0.14754 2.4912-0.0734 3.9767-0.49102 3.301-0.50577-0.81835-0.88317-0.86757-1.1303-0.14743-0.24431 0.71184-0.88339 0.75572-1.871 0.12847zm1.2-17.183c-0.93333-0.93333-1.2-0.66667-1.2 1.2s0.26667 2.1333 1.2 1.2 0.93333-1.4667 0-2.4zm-65.14 16.237c-0.92967-0.57456-0.90116-1.0679 0.12377-2.1418 0.91095-0.95449 1.3292-4.2773 1.3239-10.517-8e-3 -8.9961 0.35078-9.8462 3.3598-7.9682 1.0663 0.66553 1.2234 2.6423 0.71302 8.9719-0.48939 6.0692-0.37367 7.7397 0.45849 6.6183 0.98943-1.3333 1.0676-1.3333 0.70365 0-0.22521 0.825-0.82197 1.5118-1.3261 1.5261-0.50417 0.0144-1.7534 0.50982-2.7761 1.101-1.6822 0.97244-1.7011 1.1357-0.19806 1.7124 0.97623 0.37462 1.4094 0.22986 1.0504-0.351-0.33602-0.5437-0.0969-0.98855 0.5314-0.98855 1.6936 0 0.62392 2.2876-1.1945 2.5545-0.85897 0.12607-2.1053-0.10672-2.7697-0.51731zm3.285-5.5803c-0.32569-0.84872-0.80663-1.3287-1.0688-1.0665-0.26213 0.26213-0.17998 0.95654 0.18255 1.5431 0.98605 1.5955 1.5624 1.2855 0.8862-0.4766zm1.6243-8.9569c0-1.6025-0.18258-1.7114-0.9187-0.54775-0.50529 0.79874-0.69684 1.8112-0.42567 2.25s-0.01008 0.79775-0.625 0.79775-0.81023 0.49804-0.43402 1.1068c0.88725 1.4356 2.4034-0.83968 2.4034-3.6068zm30.541 13.224c0.12902-1.2231 0.29201-2.5614 0.36221-2.9739 0.07019-0.4125 1.0276-0.75 2.1276-0.75s2.0375 0.3375 2.0833 0.75c0.0458 0.4125 0.19237 1.7183 0.32564 2.9017 0.16171 1.4359-0.19867 1.9825-1.0833 1.643-1.2491-0.47934-1.745-1.7438-1.4193-3.619 0.0788-0.45338-0.2983-0.55147-0.83791-0.21797-0.53961 0.33349-0.74508 1.2214-0.4566 1.9732 0.28847 0.75176 0.10582 1.6256-0.40589 1.9418-0.51171 0.31625-0.82482-0.42573-0.69579-1.6488zm-22.904 0.54925c-0.324-0.324-0.0305-1.2794 0.65224-2.1231 0.99015-1.2236 0.98839-1.382-9e-3 -0.78299-0.9614 0.57759-1.25-1.2388-1.25-7.8671 0-4.9542 0.38883-8.3777 0.91459-8.0528 0.50302 0.31089 1.0921 0.0328 1.309-0.61803 0.21693-0.65081 0.8357-0.91056 1.375-0.57723s0.87511 3.8843 0.74617 7.8911 0.16498 7.7663 0.65317 8.3545c0.48818 0.58823 0.57585 1.5372 0.19481 2.1089-0.9037 1.3558-3.8328 2.4202-4.5864 1.6666zm1.1183-13.505c-0.22256-1.7974-0.40925-0.56791-0.41486 2.7321-6e-3 3.3 0.17648 4.7706 0.40466 3.2679 0.22817-1.5026 0.23276-4.2026 0.0102-6zm-23.182 12.301c-0.31644-0.512-0.11799-1.2136 0.44098-1.559s1.0163 0.0734 1.0163 0.9309c0 1.7565-0.60006 2.0152-1.4573 0.62812zm-109.04-1.0691c1.4281-0.61367 1.5711-0.91339 0.5-1.0481-0.825-0.10378-1.8375-0.13541-2.25-0.0703-0.4125 0.0651-0.80131-0.44408-0.86402-1.1316-0.0627-0.6875-0.26144-2.6-0.44161-4.25l-0.32759-3 1.3547 2.4891c1.3482 2.4771 1.354 2.4723 1.1916-1-0.0897-1.919-0.61313-3.8561-1.1631-4.3046s0.0511-0.51844 1.3358-0.15537c2.0901 0.59068 2.2234 0.45009 1.2674-1.3363-0.92313-1.7249-0.80012-1.9263 0.90421-1.4806 1.4133 0.36958 2.2411-0.15454 2.9193-1.8482 0.69475-1.7351 0.96343-1.8985 1.01-0.61403 0.0349 0.9625 0.35128 1.75 0.70315 1.75 0.35186 0 1.2852-0.7875 2.0742-1.75 0.82963-1.0122 1.1114-1.1176 0.66829-0.25-0.65955 1.2914-0.53077 1.3091 0.92584 0.12756 1.0502-0.85187 1.692-0.9586 1.692-0.28139 0 0.60008 0.62948 0.84951 1.3988 0.55427 0.76937-0.29523 1.7389 0.0134 2.1545 0.68589 0.46605 0.75409 0.33967 0.96559-0.32975 0.55187-0.59698-0.36895-1.3103-0.3069-1.5852 0.1379s0.369 0.87418 1.4309 0.95417c1.0619 0.08 1.9307-0.30316 1.9307-0.85144 0-1.4097 1.7968-0.12695 3.0178 2.1544 0.85693 1.6012 0.74704 1.8138-0.65867 1.2744-1.0297-0.39513-1.4402-0.2478-1.0534 0.37804 0.3957 0.64025-0.32854 0.84153-1.9279 0.53579-1.874-0.35824-2.2014-0.71803-1.2197-1.3402 1.431-0.90696-0.61743-1.3628-4.658-1.0366-1.6464 0.13293-1.7348-0.0131-0.5-0.82624 1.2932-0.85151 1.2655-0.98983-0.20031-1.003-0.93517-8e-3 -2.159 0.77219-2.7196 1.7347-0.96192 1.6515-1.021 1.6482-1.0497-0.059-0.0167-0.99496-0.46076-1.543-0.98674-1.218-0.52598 0.32507-0.66672 1.3641-0.31277 2.309 0.5825 1.555 0.46527 1.5756-1.2356 0.21797-1.1126-0.88811-1.5711-0.98721-1.1238-0.24294 0.45414 0.7558 0.12021 1.5008-0.83743 1.8683-1.4193 0.54464-1.399 0.75822 0.18662 1.9611 1.0726 0.81372 1.2829 1.3626 0.52939 1.3817-0.6875 0.0175-1.25 0.73336-1.25 1.5908s0.44485 1.2841 0.98855 0.94806c0.56859-0.35141 0.73347 0.0538 0.38812 0.95372-0.33023 0.86057-0.10398 2.1628 0.50278 2.8939 1.3641 1.6436 0.45099 2.6676-2.2961 2.575-2.0492-0.0691-2.0505-0.0844-0.0833-0.92971zm18.5 0c0-0.55 0.47656-1 1.059-1s0.7809 0.45 0.44098 1-0.81648 1-1.059 1-0.44098-0.45-0.44098-1zm63.435 0.23159c0.99575-0.99575 5.3615-1.3707 5.8898-0.50589 0.26015 0.42587-1.1028 0.85803-3.0287 0.96037s-3.2134-0.10218-2.8611-0.45448zm-102.45-1.9816c-0.01309-1.4956-0.15626-1.5319-0.98469-0.25-0.66458 1.0284-0.97419-1.4084-0.98469-7.75-8e-3 -5.0875 0.32219-9.251 0.73469-9.2523 0.4125-1e-3 0.71245 3.2612 0.66656 7.25-0.0786 6.8289-0.0613 6.8881 0.29544 1.0132 0.31809-5.238 0.73262-6.4102 2.5834-7.3052 2.1256-1.0279 2.1351-1.0104 0.26343 0.48913-1.0676 0.85535-1.4051 1.5552-0.75 1.5552 1.671 0 1.6151 10.691-0.0589 11.254-0.99598 0.33521-0.99774 0.72647-9e-3 1.9253 0.68273 0.82754 0.94523 1.8007 0.58334 2.1626-1.2034 1.2034-2.3245 0.68016-2.34-1.092zm231.48 0.69978c-0.95021-1.5375 0.35135-2.5295 1.6348-1.246 0.71818 0.71818 0.73543 1.2775 0.0524 1.6996-0.55992 0.34605-1.3192 0.1419-1.6873-0.45366zm-138.55-2.6998c-0.0452-0.4125-0.29114-2.0287-0.54647-3.5915s-0.0191-3.378 0.52503-4.0335c0.58557-0.70558 0.63146-1.7709 0.11245-2.6107-0.48225-0.7803-0.65495-1.7777-0.38378-2.2165s-0.01008-0.79775-0.625-0.79775-0.81023-0.49804-0.43402-1.1068c0.48171-0.77942 0.92027-0.7245 1.4828 0.1857 0.64794 1.0484 1.0888 1.0517 2.3347 0.0177 1.3188-1.0945 1.4715-0.94404 1.08 1.0643-1.5819 8.1162-1.6289 8.839-0.57485 8.839 0.61121 0 1.1113 0.49814 1.1113 1.107 0 0.60884-0.66059 0.8535-1.468 0.54367-0.80739-0.30982-1.734-0.13297-2.059 0.39301-0.32508 0.52598-0.11449 0.95633 0.46797 0.95633s1.059 0.45 1.059 1c0 1.1491-1.9579 1.3842-2.0822 0.25zm17.514-1.9326c0.26452-0.68933 0.0506-1.5193-0.47538-1.8444-0.52598-0.32508-0.95633-0.18969-0.95633 0.30085 0 0.49055-1.0125 0.81707-2.25 0.72561-1.7413-0.12869-2.2254-0.74986-2.1411-2.7474 0.0658-1.5602-0.34378-2.4073-1.0357-2.1418-0.62955 0.24158-1.1446-0.43976-1.1446-1.5141s0.46607-1.873 1.0357-1.7748c0.56964 0.0982 0.91206-0.41738 0.76093-1.1458-0.15112-0.72838 0.18638-1.0393 0.75-0.69098 0.56363 0.34834 1.0603-0.18071 1.1037-1.1757 0.0463-1.0601 0.28861-1.289 0.58541-0.55279 0.27855 0.69093 1.0305 0.92379 1.671 0.51747s2.4259-0.79582 3.9676-0.86555c2.1094-0.0954 2.6605 0.24456 2.2271 1.374-0.4619 1.2037-0.29207 1.2652 0.85797 0.31077 1.5389-1.2772 3.2146 0.12301 2.1699 1.8132-0.87879 1.4219-4.558 0.0385-4.558-1.7139 0-1.2774-0.29704-1.2082-1.5742 0.36663-0.86578 1.0676-1.3084 1.4097-0.98369 0.76023 0.32476-0.6495 0.13313-1.4636-0.42584-1.809s-1.0163 0.15051-1.0163 1.1022-0.7875 2.6306-1.75 3.7309-1.1875 1.6717-0.5 1.2697c0.78612-0.45967 1.25-0.13046 1.25 0.88712 0 1.0042-0.47426 1.3503-1.25 0.91231-0.78985-0.44593-0.74383-0.19156 0.125 0.69099 1.0639 1.0807 1.4787 1.1139 1.8333 0.1467 0.25209-0.6875 0.89739-1.25 1.434-1.25s0.6956 0.45318 0.35328 1.0071c-0.34231 0.55389 0.0463 1.2637 0.86367 1.5773 2.3928 0.91821 2.8186 3.3047 0.55921 3.1345-1.1304-0.0852-1.7631-0.68153-1.4868-1.4015zm-2.4317-9.5468c0-0.58531-0.63541-0.48812-1.5 0.22943-0.825 0.68469-1.5 1.4007-1.5 1.5911s0.675 0.0872 1.5-0.22943c0.825-0.31659 1.5-1.0326 1.5-1.5911zm9.8724 9.4794c-1.2439-1.5861-1.2085-1.6214 0.37756-0.37756 1.6658 1.3064 2.1955 2.1276 1.3724 2.1276-0.20765 0-0.99515-0.7875-1.75-1.75zm93.452 1.092c0.36189-0.3619 0.2852-1.1494-0.17044-1.75-0.46259-0.60978-0.24446-2.196 0.49394-3.592 0.7273-1.375 1.329-1.9375 1.3371-1.25 0.0259 2.1956 0.28236 2.7246 1.9155 3.9503 1.3598 1.0205 1.2249 1.1312-0.90077 0.73891-1.375-0.25374-1.9347-0.19292-1.2438 0.13515 1.419 0.6738 0.70988 2.4257-0.98191 2.4257-0.60921 0-0.81156-0.2961-0.44966-0.65799zm28.675-0.28299c0-0.51754 0.44485-1.2159 0.98855-1.5519 0.56686-0.35034 0.7345 0.0511 0.39301 0.94098-0.66479 1.7324-1.3816 2.0494-1.3816 0.61096zm-65.342-3.5078c-0.3359-0.87533 0.21195-1.6925 1.3841-2.0646 2.3347-0.74101 3.9579 0.1089 3.9579 2.0724 0 1.9023-4.6116 1.8955-5.342-8e-3zm-129.32-0.92619c0.22917-0.61875 0.97813-0.9941 1.6644-0.83411 0.76864 0.17921 1.0151-0.31526 0.64186-1.2878-0.35236-0.91823 0.0123-1.8159 0.87158-2.1457 0.81256-0.31181 1.2215-0.98093 0.90881-1.4869-0.31273-0.506 0.0274-0.79634 0.75574-0.64522 0.72838 0.15113 1.2007-0.32117 1.0496-1.0496-0.15112-0.72838 0.18638-1.0393 0.75-0.69098 0.56363 0.34834 1.0258 0.26929 1.0271-0.17567 1e-3 -0.44496 1.3889-0.85884 3.0836-0.91973 1.6948-0.0609 2.5557 0.21417 1.9132 0.61126-0.76371 0.472-0.44678 0.91062 0.91536 1.2668 1.146 0.29967 2.3785 0.0676 2.739-0.51577 0.41709-0.67486 0.14466-0.76921-0.749-0.25941-1.1922 0.6801-1.1967 0.59009-0.0295-0.5955 1.0692-1.0861 1.4774-1.1173 1.8354-0.14047 0.25323 0.69093 0.98448 0.95628 1.625 0.58968 0.64052-0.36661 0.84852-0.31584 0.46221 0.11281-0.38631 0.42866-0.0879 1.3939 0.66318 2.1449 1.0745 1.0745 1.1202 1.8855 0.21438 3.8049-0.742 1.5723-1.4032 2.0314-1.8604 1.2918-0.39007-0.63114-0.23493-1.4407 0.34476-1.7989 0.72881-0.45043 0.71252-0.86242-0.0528-1.3354-0.60872-0.37621-1.6263-0.36293-2.2613 0.0295-0.76151 0.47064-0.88094 0.27088-0.35085-0.58682 0.61994-1.0031 0.1409-1.1458-2.0955-0.62414-2.1237 0.49535-2.4979 0.40471-1.3992-0.33884 1.3333-0.90228 1.3333-1.0253 0-1.1069-0.825-0.0505-2.2926-0.24332-3.2613-0.42848-2.0379-0.38954-3.6165 2.0935-3.1722 4.9897l0.30683 2-1.5554-2c-1.5052-1.9355-1.5358-1.9153-0.94901 0.625 0.53163 2.3013 0.29449 2.625-1.9229 2.625-1.4538 0-2.3522-0.47836-2.1127-1.125zm18.647-6.1492c-0.69572-0.83829-1.5253-1.2638-1.8435-0.94562-0.3182 0.31819 0.0834 0.99718 0.8925 1.5088 2.117 1.3388 2.3936 1.175 0.95098-0.56323zm110.73 2.5242c0.40136-1.5348 0.0307-2-1.5936-2-1.3191 0-2.1464-0.65939-2.1956-1.75-0.0472-1.0454-0.28201-1.2467-0.58333-0.5-0.27741 0.6875-0.97199 1.25-1.5435 1.25-0.61406 0-0.5148-0.63176 0.24268-1.5445 0.81608-0.98332 2.223-1.3525 3.8724-1.0162 1.4249 0.29053 4.4282 0.61909 6.674 0.73014 2.5289 0.12504 4.0833 0.68548 4.0833 1.4722 0 0.69868-0.33439 1.0637-0.74309 0.81108-1.1708-0.72356-3.9737 0.6571-3.3577 1.6539 0.30493 0.4934-0.62694 1.3462-2.0708 1.8952-3.4318 1.3048-3.3918 1.3192-2.7848-1.0019zm-59.21 0.27639c1.1-0.27038 2.4875-0.88604 3.0833-1.3681 0.68488-0.55413 1.0833-0.33065 1.0833 0.60761 0 1.0164-0.97181 1.4476-3.0833 1.3681-2.1224-0.0798-2.46-0.26921-1.0833-0.60761zm-62.5-2.1097c0-0.45834 0.675-0.83334 1.5-0.83334s1.5 0.375 1.5 0.83334c0 0.45833-0.675 0.83333-1.5 0.83333s-1.5-0.375-1.5-0.83333zm25.543-0.0976c-0.31644-0.512-0.11799-1.2136 0.44098-1.559s1.0163 0.0734 1.0163 0.9309c0 1.7565-0.60006 2.0152-1.4573 0.62812zm143.12-0.49599c-0.30115-0.78478-0.0118-1.8715 0.64301-2.415 0.86485-0.71776 1.1906-0.3274 1.1906 1.4269 0 2.6725-0.98377 3.2026-1.8336 0.98807zm-36.124-0.50401c-0.31644-0.512-0.11799-1.2136 0.44098-1.559s1.0163 0.0734 1.0163 0.9309c0 1.7565-0.60006 2.0152-1.4573 0.62812zm-104.98-1.776c-0.54268-1.4252-0.42782-1.5401 0.5598-0.5598 0.68342 0.67834 0.99067 1.4852 0.68278 1.7931s-0.86705-0.24711-1.2426-1.2333z" fill="#052350" />
  <path d="m156 269.94c0-0.58246-0.5625-0.74144-1.25-0.35329-0.98024 0.55342-0.98938 0.42423-0.0424-0.5986 0.99135-1.0707 1.5132-1.0522 2.9137 0.10329 1.5612 1.2881 1.6043 1.2166 0.5072-0.84238-0.98188-1.8427-0.94037-2.25 0.22929-2.25 0.7855 0 1.7067-0.72568 2.047-1.6126 0.4666-1.2159 0.94603-1.3411 1.949-0.50868 2.1619 1.7942 2.6462 0.24757 2.6462-8.4518 0-7.7474-0.1195-8.2085-2-7.7167-1.1 0.28766-2 0.082-2-0.45708 0-0.53906 1.0125-0.92904 2.25-0.86663 2.1409 0.10796 2.2639 0.56188 2.5375 9.3635 0.17805 5.7282-0.0956 9.25-0.71862 9.25-0.55338 0-0.76459 0.62948-0.46935 1.3988 0.73729 1.9214-1.5053 3.1179-2.9367 1.5668-0.90894-0.98489-0.78392-1.1268 0.5725-0.64987 1.4841 0.52184 1.5646 0.33675 0.55588-1.2785-1.0919-1.7485-1.2703-1.7645-2.4027-0.21583-0.75186 1.0282-0.87307 2.0947-0.31456 2.7677 0.49975 0.60217 0.61254 1.3909 0.25065 1.7528-1.0588 1.0588-4.3246 0.75592-4.3246-0.40103zm16 0.12641c0-1.2153 3.6888-2.3778 4.991-1.5729 1.3291 0.82145 1.2955 2.5055-0.0501 2.5055-0.58246 0-0.74144-0.5625-0.35329-1.25 0.56457-1 0.43638-1-0.64099 0-1.5799 1.4664-3.9467 1.6568-3.9467 0.31739zm7 0.0329c0-0.46764 1.35-1.1202 3-1.4502s3-1.1164 3-1.7474c0-0.78329-0.3967-0.83088-1.25-0.14995-1.5864 1.266-5.1568 0.98463-7.0086-0.55225-0.78399-0.65065-1.7215-0.88691-2.0834-0.52502-0.36189 0.3619-0.65799 0.41309-0.65799 0.11377s0.76138-1.1618 1.692-1.9167c0.93058-0.75484 1.3855-0.86093 1.011-0.23575-0.89507 1.4941 1.2723 3.0471 3.797 2.7206 4.2924-0.5551 5.6893-1.0456 6.4408-2.2615 0.59736-0.96654 0.92371-0.89125 1.3886 0.32037 0.39703 1.0346 0.0581 1.5838-0.97747 1.5838-1.0632 0-1.4222 0.62356-1.09 1.8937 0.3509 1.3418 0.0206 1.8192-1.1334 1.6382-0.89572-0.14051-2.6411 0.12119-3.8786 0.58155-1.2375 0.46037-2.25 0.45442-2.25-0.0132zm25-0.24775c0-0.53379-0.5625-0.65296-1.25-0.26481-0.98024 0.55342-0.98938 0.42423-0.0424-0.5986 0.99135-1.0707 1.5132-1.0522 2.9137 0.10329 1.5612 1.2881 1.6043 1.2166 0.5072-0.84238-0.77026-1.4456-0.82879-2.25-0.16372-2.25 0.56935 0 1.0352 0.45 1.0352 1s0.47656 1 1.059 1 0.78408-0.44485 0.44806-0.98855c-0.35382-0.57249 0.06-0.73107 0.98325-0.37679 1.7551 0.67351 1.5258 2.7922-0.32366 2.9903-0.64167 0.0688-1.2792 0.21568-1.4167 0.32651-0.94894 0.76489-3.75 0.69093-3.75-0.099zm33.144 0.36222c-0.6293-0.2098-1.1442-1.2174-1.1442-2.2391 0-2.1834-1.587-3.453-2.4899-1.992-0.34546 0.55897-1.3891 0.98779-2.3191 0.95292-1.1707-0.0439-0.96362-0.35462 0.67316-1.01 1.6855-0.67488 2.086-1.3026 1.3951-2.1866-0.53298-0.682-1.4516-2.6758-2.0415-4.4307-0.90434-2.6907-0.83972-3.1014 0.41237-2.621 0.81664 0.31337 1.2592 1.1576 0.98348 1.8762-0.27573 0.71852 0.50549 2.798 1.736 4.621 2.2368 3.3138 5.0463 4.2645 7.4003 2.5043 0.6875-0.51408 1.2643-0.54208 1.2818-0.0622 0.0175 0.47984 0.6925-1e-3 1.5-1.0687 1.2106-1.6006 1.4682-1.659 1.4682-0.33333 0 0.88428-0.5625 1.8348-1.25 2.1122s-0.26334 0.53991 0.94258 0.58333c1.6719 0.0602 2.1011-0.39596 1.8074-1.921s0.13548-1.9812 1.8074-1.921c1.2059 0.0434 1.6301 0.30592 0.94258 0.58333s-1.25 1.0868-1.25 1.7986c0 2.5726-2.492 3.5832-4.8182 1.9539-2.2083-1.5468-2.5477-1.2781-2.244 1.777 0.16002 1.61-1.7864 2.0253-4.7937 1.0229zm3.3181-2.2758c-0.28945-0.46835-1.1843-0.59904-1.9885-0.29043s-1.2254 0.9443-0.93595 1.4126c0.28945 0.46835 1.1843 0.59904 1.9885 0.29043s1.2254-0.9443 0.93595-1.4126zm24.538 1.7841c0-0.51537-0.6421-0.69063-1.4269-0.38948-2.0249 0.77703-4.4128-2.1966-2.6425-3.2907 0.9776-0.60419 1.0314-1.2704 0.2161-2.6738-1.0601-1.8246-1.0866-1.8245-1.1163 3e-3 -0.0236 1.452-0.33174 1.6224-1.3724 0.75868-0.7381-0.61257-1.6381-0.81767-2-0.45578-0.36189 0.3619-0.65799 0.0849-0.65799-0.61566 0-0.70051 0.63066-1.0316 1.4015-0.73587 1.3931 0.53459 2.9362-2.6528 1.8231-3.7659-1.2889-1.2889-3.1322-0.48083-2.5232 1.1061 0.42936 1.1189 0.25527 1.4272-0.53138 0.94099-1.3966-0.86276-1.5695-3.6047-0.22736-3.6047 0.51842 0 0.76926-0.9 0.55742-2-0.45302-2.3524 1.0165-2.7023 1.8816-0.44806 0.38535 1.0042 0.19211 1.3026-0.54752 0.84549-0.70412-0.43517-0.86906-0.26311-0.42953 0.44806 1.3421 2.1716 2.6343 1.1578 2.0337-1.5955-0.46196-2.1176-0.35488-2.405 0.46563-1.25 0.58607 0.825 1.1059 1.275 1.1552 1s0.2798-1.522 0.51225-2.771c0.41463-2.2281 0.37064-2.2394-2.3243-0.5985l-2.7469 1.6726 2.8804-2.6299c1.5842-1.4465 3.3842-2.3148 4-1.9296 0.61577 0.38516 1.5696 0.77868 2.1196 0.87449 0.55 0.0958 2.2375 0.49475 3.75 0.88653 1.8364 0.47567 2.75 0.32447 2.75-0.4551 0-0.64208-0.3375-0.97511-0.75-0.74006-0.4125 0.23506-2.325-0.14443-4.25-0.84329l-3.5-1.2707 3.5 0.17618c1.925 0.0969 4.0625 0.52949 4.75 0.96133 0.6875 0.43183 1.25 0.51776 1.25 0.19095 0-1.5522 4.2294 1.9148 5.2297 4.287 1.3205 3.1316 1.759 6.1281 0.88154 6.0245-2.0376-0.24058-2.9783 0.37718-2.9156 1.9147 0.0392 0.9625-0.26382 2.5426-0.67349 3.5113-0.57269 1.3542-0.37373 1.6189 0.86074 1.1452 0.88307-0.33887 1.3566-1.019 1.0523-1.5113-0.3043-0.49237-0.09084-0.89522 0.47436-0.89522s0.78278-0.7875 0.48351-1.75c-0.49363-1.5876-0.43692-1.5826 0.61116 0.0538 0.90756 1.417 0.81159 2.3283-0.44754 4.25-0.88156 1.3454-2.0121 2.4462-2.5124 2.4462-1.3417 0-2.3448-3.9043-1.3612-5.298 0.46662-0.6611 0.78071-1.877 0.69797-2.702-0.0827-0.825-0.20235-2.4612-0.26579-3.6361-0.12324-2.2821-6.3099-5.9798-8.1264-4.8571-0.54391 0.33613-0.98893 0.20961-0.98893-0.28119 0-0.49079-0.69436-0.89235-1.543-0.89235s-1.3254 0.5671-1.0594 1.2602c0.26597 0.69312-0.16466 1.7982-0.95697 2.4558-2.2889 1.8996-1.812 8.4676 0.80944 11.149 2.3122 2.3651 6.6802 3.0771 7.9847 1.3015 0.44869-0.61072 0.74065-0.49043 0.75 0.30902 8e-3 0.71996 0.42581 1.0553 0.92753 0.74523 1.0628-0.65682 0.83489 2.032-0.26547 3.1323-1.0984 1.0984-7.6468 1.1296-7.6468 0.03647zm5.5101-0.73936c0.34546-0.55897 1.1166-0.71444 1.7135-0.34549 0.599 0.3702 0.80145 0.21136 0.45175-0.35447-0.34852-0.5639-2.1184-0.9953-3.9331-0.95865-1.8147 0.0366-3.9616-0.33289-4.7708-0.82119-1.271-0.76687-1.2819-0.65425-0.0802 0.82673 0.88794 1.0943 2.1089 1.4867 3.3752 1.0848 1.3141-0.41707 1.753-0.25586 1.2998 0.47743-0.37633 0.60892-0.23424 1.1071 0.31576 1.1071s1.2826-0.45734 1.6281-1.0163zm7.8414-13.457c0.311-0.81046-0.13118-1.8634-0.98261-2.3399-0.85144-0.47649-1.5078-1.1634-1.4585-1.5264 0.25429-1.8734-0.0461-2.4982-1.4623-3.0417-0.88992-0.34149-1.2913-0.17385-0.94098 0.39301 0.33602 0.5437 0.0343 0.98855-0.67057 0.98855-0.70484 0-0.28139 0.70052 0.94098 1.5567 1.2224 0.85619 2.2225 2.4312 2.2225 3.5 0 2.284 1.5374 2.5911 2.3515 0.46975zm7.1074 14.407c-0.84207-1.3625 0.0437-2.2346 2.678-2.6366 1.5582-0.23781 1.9309 0.0843 1.4742 1.2742-0.3361 0.87586-0.61109 1.7807-0.61109 2.0107 0 0.89432-2.9179 0.3601-3.5411-0.64832zm16.603 0.4858c0.0962-0.5056 0.11466-1.5943 0.0411-2.4193-0.11888-1.3333-0.2516-1.3333-1.1946 0-0.82928 1.1726-0.97781 1.1917-0.68048 0.0874 0.20918-0.77694 1.1123-1.52 2.0069-1.6514 1.1345-0.16651 1.4396 0.26085 1.0086 1.4126-0.54055 1.4444-0.40353 1.4768 1.0934 0.25885 0.94126-0.76588 2.0005-1.1034 2.3539-0.75 0.35338 0.35337 5e-3 0.64939-0.77416 0.65781-1.1761 0.0127-1.1862 0.16133-0.0599 0.875 0.94581 0.5993 1.0215 1.0669 0.25 1.5437-0.60872 0.37621-1.1068 0.15236-1.1068-0.49745 0-0.86139-0.42165-0.83152-1.5564 0.11026-0.85604 0.71044-1.4778 0.87804-1.3816 0.37244zm15.89-2.0443c-0.49664-1.3062-1.4192-2.375-2.0502-2.375-0.81951 0-0.79161 0.42846 0.0977 1.5 0.69443 0.83674 0.80272 1.5 0.24489 1.5-0.55 0-1.5602-0.675-2.2449-1.5-0.92769-1.1178-0.94385-1.5-0.0634-1.5 0.64981 0 0.88907-0.4731 0.5317-1.0513-0.35737-0.57823 1.0555-0.33884 3.1396 0.53197 4.5329 1.894 5.2922 2.5194 3.0587 2.5194-0.91667 0-1.6667 0.49814-1.6667 1.107 0 0.60884 0.7118 0.83384 1.5818 0.5 0.86998-0.33385 2.0215-0.60699 2.559-0.60699 0.53748 0 0.68159-0.47836 0.32026-1.063-0.36134-0.58466 0.12335-1.9253 1.0771-2.9792 1.5855-1.7519 1.5944-1.9698 0.1037-2.5418-0.8967-0.34409-1.4376-0.93746-1.2021-1.3186s0.0423-1.3175-0.42953-2.0809c-0.69763-1.1288-1.1434-1.1509-2.3876-0.11832-1.2528 1.0397-2.0758 0.94712-4.5449-0.51138-3.5617-2.1039-4.5347-3.9975-2.4627-4.7926 0.81884-0.31421 1.224-0.14287 0.90038 0.38077-0.68332 1.1056 3.3588 5.4841 4.2449 4.598 0.32652-0.32652-0.27348-1.2974-1.3333-2.1575s-1.4029-1.3026-0.76241-0.98344c0.64052 0.31922 1.3925 0.0151 1.671-0.67584 0.32353-0.80247 0.53498-0.66425 0.58541 0.38266 0.0434 0.90139 0.64145 1.618 1.329 1.5925 3.5287-0.13105 4.6547 0.35332 4.1116 1.7686-0.31659 0.825-0.0775 1.5 0.53138 1.5 0.60885 0 1.107-0.54643 1.107-1.2143 0-0.76434 0.62672-0.58756 1.6914 0.47707 2.3032 2.3032 2.5695 7.2962 0.47653 8.9329-1.4529 1.1361-1.5098 1.1014-0.44142-0.26981 0.67455-0.86575 1.0226-2.6327 0.77341-3.9266-0.55395-2.8764-2.5034-5.1339-2.0552-2.38 0.16831 1.0344-0.37498 2.6598-1.2073 3.6119-1.2968 1.4835-1.3147 1.976-0.12532 3.442 0.92389 1.1387 0.97004 1.4596 0.13801 0.95974-0.6875-0.41304-1.25-0.33067-1.25 0.18304s-1.1575 0.93402-2.5723 0.93402c-1.7875 0-2.8478-0.72457-3.4752-2.375zm24.245 1.945c-0.98752-0.39565-0.89031-0.82382 0.40149-1.7684 1.1952-0.87394 1.3604-1.459 0.553-1.958-0.63332-0.39142-1.1515-0.28325-1.1515 0.24036 0 0.52362-0.77378 1.249-1.7195 1.6119-0.94573 0.36292-1.3996 0.33997-1.0087-0.051 0.39097-0.39096 0.23353-1.286-0.34987-1.9889-0.7481-0.9014-0.74474-1.8685 0.0114-3.2813 0.74756-1.3968 0.75386-2.1999 0.0208-2.653-0.73002-0.45117-0.71809-1.0512 0.039-1.9634 0.80033-0.96434 0.74675-1.4516-0.20144-1.832-0.98849-0.39662-0.99829-0.53683-0.0417-0.59724 0.77851-0.0492 1.25-1.5877 1.25-4.079 0-3.887-0.58267-4.5002-3.8504-4.0516-0.7427 0.10195-1.0575-0.28845-0.69962-0.86755 0.35791-0.57911 1.6406-0.90141 2.8504-0.71624 2.0481 0.31349 2.2074 0.89939 2.3123 8.5056 0.0822 5.956 0.54531 8.6469 1.7096 9.9335 2.4068 2.6595 5.0472 2.3662 7.1731-0.79701 1.7003-2.5299 2.0369-2.6609 3.1004-1.2064 0.97776 1.3372 1.3242 0.23126 1.9203-6.1293 0.7429-7.9278 0.52854-8.9003-2.0451-9.2781-1.1051-0.16219-1.4711 0.88166-1.4711 4.1956 0 2.4382 0.4737 4.4115 1.059 4.4115 0.58246 0 0.83715-0.35899 0.56598-0.79775s-0.0796-1.4513 0.42567-2.25c0.77195-1.2203 0.92115-1.1858 0.93402 0.21596 0.0252 2.7488-1.1232 4.8642-2.2594 4.162-0.67443-0.41682-0.82361-0.0288-0.40667 1.0577 0.36216 0.94379 0.26034 1.4699-0.22627 1.1692s-0.81895-3.356-0.73854-6.7894c0.13934-5.9495 0.26358-6.2432 2.6462-6.2551 2.4864-0.0125 2.499 0.0336 2.3093 8.4874-0.23655 10.546-0.32055 11-2.035 11-0.7658 0-1.1458 0.39901-0.84435 0.88669 0.7242 1.1718-2.0715 3.4529-3.3008 2.6932-0.52712-0.32578-1.1481-0.25202-1.3799 0.16391-0.23184 0.41593-0.2844 0.19373-0.1168-0.49377s-0.13116-1.25-0.66389-1.25c-0.53274 0-0.96862 0.675-0.96862 1.5 0 1.503-1.3642 1.7972-3.803 0.82005zm2.9306-2.07c1.2439-1.5861 1.2085-1.6214-0.37756-0.37756-1.6658 1.3064-2.1955 2.1276-1.3724 2.1276 0.20765 0 0.99515-0.7875 1.75-1.75zm5.8954-1.2358c-0.85035-0.52554-0.71985-0.91648 0.45662-1.3679 0.90597-0.34766 1.3534-1.1076 0.99416-1.6888-0.40303-0.65212-1.3926-0.20393-2.5848 1.1707-1.4401 1.6604-1.6203 2.4198-0.70807 2.9836 0.67304 0.41596 1.6307 0.50473 2.1282 0.19727s0.36873-0.89015-0.2861-1.2949zm-10.023-1.5732c0-0.85746-0.45734-1.2764-1.0163-0.9309s-0.75742 1.047-0.44098 1.559c0.85723 1.387 1.4573 1.1284 1.4573-0.62812zm20.203 2.483c0.12891-1.6918 0.59721-3.3003 1.0407-3.5743 0.44345-0.27407 0.68262 0.0709 0.5315 0.76663-0.15113 0.69572 0.40022 1.4155 1.2252 1.5996 1.2567 0.28033 1.485-1.2118 1.4074-9.1998-0.0918-9.4535-0.75551-12.189-2.3368-9.6303-0.57854 0.93609-1.0237 0.99922-1.509 0.21398-0.84631-1.3694 1.8669-2.533 3.9988-1.7149 1.2636 0.4849 1.5363 2.2644 1.434 9.357-0.18028 12.489-0.17424 12.541 1.3925 11.94 0.97287-0.37333 1.2365 0.0425 0.88336 1.393-0.27689 1.0588-1.1525 1.9252-1.9458 1.9252-0.86362 0-1.1592-0.50156-0.73666-1.25 0.56457-1 0.43638-1-0.64099 0-0.74068 0.6875-2.1638 1.25-3.1626 1.25-1.4118 0-1.7637-0.68458-1.5815-3.076zm3.2903 1.0875c0.35034-0.56686-0.0511-0.7345-0.94098-0.39301-1.7324 0.66479-2.0494 1.3816-0.61096 1.3816 0.51754 0 1.2159-0.44485 1.5519-0.98855zm6.237 1.3453c-0.28602-0.47122 0.10773-1.437 0.875-2.1462 1.5459-1.4289 1.8418-0.46395 0.50473 1.6462-0.47283 0.74622-1.0937 0.97122-1.3797 0.5zm2.27-0.35676c0-0.55 0.45-1 1-1s1 0.45 1 1-0.45 1-1 1-1-0.45-1-1zm11.281-1.0808c0.0738-0.97934 0.49072-1.5602 0.92655-1.2909 0.43582 0.26935 0.79241 0.0397 0.79241-0.51027 0-0.55-0.45-1.2781-1-1.618s-0.96447-2.729-0.92105-5.309c0.0434-2.58 0.30592-4.1285 0.58333-3.441s1.5919 1.25 2.921 1.25c2.14 0 2.4076 0.42937 2.3377 3.75-0.0434 2.0625-0.30592 3.1875-0.58333 2.5-0.61183-1.5163-4.3377-1.6803-4.3377-0.19098 0 0.58246 0.51953 0.73793 1.1545 0.34549s0.88967-0.28501 0.56598 0.23873-0.16822 1.6058 0.34549 2.4045c0.81288 1.2639 1.0641 1.2577 1.9368-0.0478 0.77944-1.1659 0.9245-0.94316 0.65126 1-0.26655 1.8955-0.97482 2.5242-2.9294 2.5999-1.8884 0.0732-2.5419-0.37632-2.4437-1.6807zm3.719 0.63984c0-0.24254-0.45-0.7191-1-1.059s-1-0.14148-1 0.44098 0.45 1.059 1 1.059 1-0.19844 1-0.44098zm13.939 1.441c-0.0505-0.275-0.23456-1.2329-0.40901-2.1286-0.22354-1.1478 0.22144-1.4877 1.5073-1.1515 1.9374 0.50664 3.5705 3.28 1.9315 3.28-0.53274 0-0.97551-0.5625-0.98393-1.25-0.0102-0.83333-0.33844-0.75-0.98469 0.25-0.53316 0.825-1.0107 1.275-1.0612 1zm10.456-1.1699c-0.48618-0.78665-0.1779-0.96074 0.94099-0.53138 0.91522 0.3512 1.664 0.20267 1.664-0.33006 0-0.53274-0.7875-0.97551-1.75-0.98393-1.3841-0.0121-1.4618-0.19784-0.37188-0.8882 0.8028-0.50849 1.0514-1.4015 0.59549-2.1392-0.53421-0.86437-0.38069-1.0179 0.48368-0.48368 0.72169 0.44602 1.5994 0.24362 2.0409-0.47062 0.43342-0.70128 0.7145 0.56336 0.6382 2.8714-0.10422 3.1527-0.5348 4.1248-1.8273 4.1251-0.93004 2.7e-4 -2.0164-0.52598-2.414-1.1694zm15.605 0.37082c0-1.6254 1.2596-2.1323 2.9931-1.2046 1.3781 0.73756 1.7074 0.52436 1.6185-1.048-0.0614-1.0856-0.4491-1.9682-0.8616-1.9611-0.4125 7e-3 -1.0875 0.0197-1.5 0.0281-0.4125 8e-3 -0.0785 0.43984 0.7422 0.95871 1.1339 0.71684 0.86842 0.89327-1.1054 0.73468-3.4724-0.27899-8.3056-5.8758-6.5937-7.6354 0.94734-0.9737 0.87795-1.1687-0.32267-0.90688-0.84126 0.18346-1.5988-0.0449-1.6834-0.5075-0.0846-0.46258-0.97133-1.4816-1.9704-2.2645-1.1096-0.8694-1.2814-1.3205-0.44159-1.1589 0.75625 0.14546 1.6021-0.36066 1.8797-1.1247 0.30662-0.84391 0.0658-1.1179-0.61354-0.69806-0.72809 0.44998-0.91933 0.0624-0.5481-1.1108 0.50933-1.6096 0.4014-1.5948-1.0114 0.13919-0.8699 1.0676-1.6161 1.5176-1.6582 1-0.0421-0.51762-0.22758-1.7308-0.41222-2.6959-0.18463-0.96512 0.0748-1.5011 0.57651-1.191 0.50172 0.31008 0.91222 0.0265 0.91222-0.63009 0-0.65663 0.92906-0.0128 2.0646 1.4308 1.1355 1.4436 1.923 3.5414 1.75 4.6617-0.20634 1.3362 0.507 2.4579 2.0732 3.2602 1.3133 0.67272 2.2874 1.6228 2.1646 2.1113-0.12276 0.4885 0.37772 1.2691 1.1122 1.7347 0.99869 0.63306 1.0202 0.85036 0.0854 0.86181-0.6875 8e-3 -1.25 0.49187-1.25 1.0743s0.51953 0.73793 1.1545 0.34549c0.68907-0.42587 0.88407-0.27594 0.48369 0.37188-0.36895 0.59698-0.26447 1.3366 0.23218 1.6435 1.2978 0.80207 3.4391-2.1101 2.5771-3.5048-1.2075-1.9537-1.7819-12.24-0.64424-11.537 0.55493 0.34296 0.78701 1.4723 0.51573 2.5097s-0.0237 2.1763 0.55021 2.531c0.57389 0.35468 0.80742 1.26 0.51894 2.0117-0.28847 0.75176-0.0104 1.6845 0.61782 2.0728 1.6766 1.0362 0.72839-8.1393-1.0715-10.369-2.1791-2.6991-2.0703-3.8691 0.34836-3.7463 1.3918 0.0707 2.2833 0.84045 2.4453 2.1112 0.24631 1.9326 0.22729 1.9348-0.56411 0.0664-0.51901-1.2254-1.0687-1.5296-1.5007-0.83062-0.37493 0.60665-0.10983 1.7018 0.58912 2.4336 1.748 1.8303 2.2336 11.912 0.6217 12.908-0.99153 0.6128-0.98689 1.0814 0.0228 2.298 1.9646 2.3672 0.93854 4.9122-2.1469 5.3248-1.5125 0.2023-2.75-0.0226-2.75-0.49972zm-2.3333-8.6569c0-0.80081-0.38234-1.2197-0.84965-0.9309-0.4673 0.28881-0.59075 0.94401-0.27431 1.456 0.80862 1.3084 1.124 1.1611 1.124-0.52511zm24.333 8.004c0-1.0826-0.43772-1.3926-1.25-0.88511-1.8868 1.1788-3.8398 1.2915-3.1542 0.18205 0.33296-0.53874-0.2497-1.2031-1.2948-1.4764-2.6547-0.69421-4.4576-3.9651-4.9873-9.048-0.34345-3.296-0.0779-4.4738 1.1117-4.9303 0.85964-0.32987 1.3286-0.97909 1.042-1.4427-0.57872-0.93639 3.445-0.37513 4.4178 0.61622 0.33808 0.34454-0.23863 0.47115-1.2816 0.28136s-2.1168 0.28914-2.3864 1.0643c-0.32388 0.93118 0.0162 1.215 1.0022 0.83665 1.2074-0.46332 1.3638 0.0315 0.81917 2.5906-0.37399 1.7572-0.19884 3.9548 0.39402 4.9439 0.79669 1.3291 0.72593 1.993-0.27909 2.6186-0.97123 0.60455-0.41395 1.1495 2 1.9558 3.0506 1.0189 3.1748 0.9863 1.4052-0.36858-1.0676-0.81744-1.4007-1.4863-0.74021-1.4863 0.6605 0 1.9715 0.9 2.9134 2s2.3734 2 3.1813 2c1.089 0 0.96683-0.40136-0.47224-1.5518-1.8865-1.5081-1.8778-1.5344 0.30887-0.93261 1.3681 0.37648 2.25 0.17767 2.25-0.50724 0-0.61952 0.45-0.84829 1-0.50837s1-0.057 1-0.88197c0-0.825 0.44485-1.7749 0.98855-2.111 0.55203-0.34118 0.74271 0.0297 0.43182 0.83983-0.30619 0.79793 0.0365 1.7934 0.76146 2.2123 0.72499 0.41882 0.99656 0.40522 0.60348-0.0302-0.39309-0.43542-0.0556-1.7327 0.75-2.8828 1.6443-2.3476 1.9382-4.0568 0.5501-3.1989-0.50302 0.31089-1.1425-5e-5 -1.421-0.69098-0.27856-0.69093-0.54199-0.37873-0.58541 0.69377-0.0614 1.5167-0.34562 1.6833-1.279 0.75-0.66-0.66-1.6725-1.1931-2.25-1.1847-0.5775 8e-3 -0.46049 0.38918 0.26002 0.84612 0.86543 0.54884 0.24361 0.86112-1.8322 0.92014-2.3908 0.068-3.0058-0.26634-2.5715-1.398 0.32196-0.83903 0.13985-1.2211-0.41778-0.87644-0.5437 0.33602-0.98855 0.17171-0.98855-0.36515 0-0.55241 2.8412-0.90358 6.5456-0.80902l6.5456 0.16709-0.43814 3.268c-0.48036 3.583-2.2918 6.3324-4.0365 6.1267-2.3255-0.27426-3.6166 0.14138-3.6166 1.1643 0 0.58246 0.5625 0.73531 1.25 0.33967s0.89948-0.33417 0.47106 0.1366c-0.42842 0.47076-1.3284 0.94943-2 1.0637s-2.0086 0.52439-2.9711 0.91138c-1.2479 0.50175-1.75 0.22565-1.75-0.9624zm-7.2047-6.9053c-1.2671-0.79929-1.3713-1.4791-0.51459-3.3593 0.84434-1.8531 0.73785-2.6934-0.49795-3.9292-1.4293-1.4293-1.5502-1.1677-1.3321 2.8821 0.27478 5.1012 1.1955 7.1004 2.8104 6.1024 0.77067-0.47629 0.62458-1.0082-0.46577-1.696zm-209.25 6.4264c-0.31644-0.512-0.11799-1.2136 0.44098-1.559s1.0163 0.0734 1.0163 0.9309c0 1.7565-0.60006 2.0152-1.4573 0.62812zm-46.043-1.0691c-0.33992-0.55-0.14148-1 0.44098-1s1.059 0.45 1.059 1-0.19844 1-0.44098 1-0.7191-0.45-1.059-1zm-15.284-10.738c0.25286-9.5664 0.48772-10.777 2.1523-11.096 1.1756-0.22524 1.6135 0.0545 1.1809 0.75446-0.37814 0.61184-1.1363 0.8351-1.6847 0.49613-0.6463-0.39943-0.88591 3.1146-0.6809 9.9858 0.17397 5.8312-0.0364 10.601-0.46752 10.6-0.43111-1e-3 -0.65611-4.8343-0.5-10.74zm39.784 9.891c0-0.46595-0.88861-1.2534-1.9747-1.75-1.4574-0.66634-1.7234-1.2957-1.0153-2.4028 0.81891-1.2804 0.96161-1.2438 0.97468 0.25 0.0155 1.7722 1.1366 2.2954 2.34 1.092 0.36189-0.3619 0.0994-1.3351-0.58334-2.1626-0.98906-1.1989-0.9873-1.5901 9e-3 -1.9253 0.79437-0.26737 1.25-2.3951 1.25-5.8374 0-3.6585-0.40573-5.4216-1.25-5.432-0.84746-0.0104-0.76695-0.35694 0.25-1.0761 1.3333-0.94295 1.3333-1.0159 0-0.65631-1.0707 0.28872-1.6711 2.3856-2.0978 7.3261l-0.59782 6.9216 0.0978-7.5c0.0887-6.8007 0.28429-7.5 2.0978-7.5 1.8351 0 2.0237 0.76251 2.2875 9.25 0.17805 5.7282-0.0956 9.25-0.71862 9.25-0.55338 0-0.74712 0.675-0.43054 1.5 0.31659 0.825 0.30246 1.5-0.0314 1.5-0.33413 0-0.60727-0.38123-0.60727-0.84719zm-21.812-0.82848c0.13047-0.45338-0.29255-1.7777-0.94004-2.9428-0.6475-1.1652-0.95399-2.3418-0.6811-2.6147 1.0285-1.0285 1.2771-4.7668 0.31703-4.7668-0.55088 0-0.74252-0.41921-0.42586-0.93158s-0.44428-1.646-1.691-2.5193c-1.2467-0.87322-2.2872-2.1415-2.3122-2.8184s-0.5875-1.1182-1.25-0.98074-1.2046-0.1687-1.2046-0.68045-0.7875-1.1248-1.75-1.3624-0.625-0.25497 0.75-0.0387c1.375 0.21625 3.175 0.49181 4 0.61235 2.2993 0.33596 8.0919 4.7615 7.4954 5.7265-0.29044 0.46994-0.0851 1.1282 0.45631 1.4628 1.483 0.91654 0.93357 7.6366-0.67483 8.2538-0.76553 0.29376-1.1607 1.1366-0.87807 1.873 0.28258 0.73641 0.0723 1.6118-0.46731 1.9453-0.53961 0.3335-0.87435 0.23541-0.74387-0.21797zm1.8863-4.7786c0.49672 0.30699 0.63073-0.15169 0.2978-1.0193-0.46546-1.213-0.9224-1.3143-1.9775-0.43863-0.75472 0.62636-1.0698 1.6282-0.70013 2.2263 0.46769 0.75675 0.79442 0.72039 1.0744-0.11953 0.22128-0.66384 0.80874-0.95581 1.3055-0.64881zm0.92604-5.0904c0-0.66625-1.0125-1.9319-2.25-2.8125-2.0026-1.4251-2.03-1.5395-0.25-1.0403l2 0.56082-2-1.6549c-3.5622-2.9476-5.1667-3.5411-5.1667-1.9113 0 0.81896 0.51145 1.2928 1.1365 1.0529 1.0221-0.39222 4.2189 5.0073 3.809 6.4334-0.0922 0.32084 0.48229 0.58334 1.2767 0.58334 0.79444 0 1.4444-0.54512 1.4444-1.2114zm9.516 9.5705c-0.37636-0.60896-1.5464-0.83358-2.6001-0.49914-1.2833 0.40732-1.9158 0.13187-1.9158-0.83432 0-0.86906 0.98647-1.4424 2.4818-1.4424 1.365 0 2.2622 0.35532 1.9938 0.78959-0.26839 0.43427 0.0773 0.99142 0.76824 1.2381 0.69093 0.24667 0.96379 0.76505 0.60637 1.1519-0.35743 0.38689-0.9578 0.20519-1.3342-0.40378zm199.48-0.02585c-0.90129-0.58246-1.0246-0.97549-0.30902-0.98469 0.65504-8e-3 1.4691 0.43469 1.809 0.98469 0.7673 1.2415 0.42112 1.2415-1.5 0zm-251.55-0.88948c-0.84052-0.83613 0.77298-2.1105 2.6721-2.1105 1.1 0 1.7456 0.41157 1.4348 0.91459-0.31089 0.50302 5e-5 1.1211 0.69098 1.3735 0.69093 0.2524-0.0179 0.40333-1.5751 0.33541-1.5572-0.0679-3.0075-0.29876-3.2228-0.51297zm134.67-3.6105c-0.0464-2.75 0.40119-5.675 0.99466-6.5 0.89606-1.2457 0.97769-1.188 0.48144 0.34024-0.87753 2.7024 0.29528 3.9849 2.2479 2.4583 1.4498-1.1334 1.5031-1.0961 0.41965 0.29345-0.68273 0.8756-0.94595 1.8874-0.58494 2.2484 1.0973 1.0973 1.2578 5.6596 0.19902 5.6596-0.54494 0-0.71268-0.45-0.37276-1s0.0864-1-0.56343-1c-0.83203 0-0.77555-0.49173 0.19099-1.6626 1.1741-1.4224 1.1597-1.5923-0.1-1.1759-0.80983 0.26772-1.7775 1.5784-2.1503 2.9126-0.48434 1.7332-0.70199 0.99826-0.76227-2.5741zm12.885 3.441c0-0.58246 0.45-0.7809 1-0.44098s1 0.81648 1 1.059-0.45 0.44098-1 0.44098-1-0.47656-1-1.059zm5.7363-0.936c-2.0343-2.3759-1.8947-5.8799 0.21759-5.4631 0.85037 0.16779 1.8836 0.33951 2.2961 0.38159 1.02 0.10405 0.95655 5.8308-0.0716 6.4663-0.45189 0.27928-1.5508-0.34387-2.4421-1.3848zm1.2637-3.005c0-0.55-0.45-1-1-1s-1 0.45-1 1 0.45 1 1 1 1-0.45 1-1zm31.386 3.25c0.2348-1.2375 0.019-2.25-0.47947-2.25-0.49851 0-0.90638-0.45-0.90638-1s0.675-1 1.5-1c1.6826 0 1.8215 1.5274 0.40919 4.5-0.88551 1.8638-0.92116 1.8467-0.52334-0.25zm68.614-7.309c0-5.7847-0.36144-8.8356-1-8.441-0.55 0.33992-1 0.11492-1-0.5s-0.45-0.83992-1-0.5-1 0.18908-1-0.3352c0-0.52427 1.1247-0.88833 2.4993-0.80901 2.4849 0.14338 2.4993 0.20028 2.5 9.8942 3.9e-4 5.3625-0.22429 9.75-0.49929 9.75s-0.5-4.0766-0.5-9.059zm-176 7.0904c0-0.53273 0.675-0.70959 1.5-0.39301 0.825 0.31659 1.5 0.75246 1.5 0.96862 0 0.21615-0.675 0.39301-1.5 0.39301s-1.5-0.43588-1.5-0.96862zm71-0.9717c0-0.7014-0.65107-1.0238-1.4491-0.7176-0.97227 0.3731-1.2647 0.0755-0.88866-0.90435 0.3864-1.007 0.0839-1.2776-0.97424-0.87151-2.3824 0.9142-5.666-5.8438-3.4922-7.1872 0.63942-0.39518 0.51339-0.94852-0.33907-1.4887-2.0032-1.2693-3.1406-1.0724-2.5591 0.44302 0.28141 0.73334-0.0775 1.3333-0.79767 1.3333-0.72013 0-1.0965-0.55449-0.83649-1.2322 0.26006-0.6777-8e-3 -1.5292-0.59534-1.8924-0.58749-0.36309-1.0682 0.04139-1.0682 0.89885s-0.45 1.559-1 1.559-1-0.42344-1-0.94098 0.45-1.2191 1-1.559 1-1.068 1-1.618-0.50838-0.68581-1.1297-0.30179c-0.68567 0.42376-0.9479 0.15216-0.66714-0.69098 0.74787-2.2459 3.8256-2.2355 5.9268 0.02 1.0714 1.15 1.5929 2.1045 1.159 2.1213-0.43393 0.0167 0.0235 0.50305 1.0165 1.0807 1.5178 0.88295 1.5974 1.3063 0.5 2.6568-1.1171 1.3747-1.0575 1.5136 0.41252 0.96295 0.94489-0.35395 2.0269-0.14368 2.4045 0.46728 0.38598 0.62452 0.23583 0.83228-0.34297 0.47457-0.60787-0.37568-1.0295 0.45768-1.0295 2.0348 0 2.4142 0.12299 2.5029 1.279 0.92192 0.81106-1.1092 1.5186-1.3614 1.934-0.68929 0.36026 0.58291 0.33371 1.0598-0.059 1.0598-0.3927 0 0.10298 0.90276 1.1015 2.0061s1.5183 2.3034 1.155 2.6667c-0.3633 0.36329-0.66054 0.0874-0.66054-0.61312zm-10-13.619c0-0.85746-0.45734-1.2764-1.0163-0.9309s-0.75742 1.047-0.44098 1.559c0.85723 1.387 1.4573 1.1284 1.4573-0.62812zm111.34 7.559c0-4.125 0.17651-5.8125 0.39226-3.75 0.21574 2.0625 0.21574 5.4375 0 7.5-0.21575 2.0625-0.39226 0.375-0.39226-3.75zm1.9362 3c0-2.475 0.19502-3.4875 0.43337-2.25 0.23836 1.2375 0.23836 3.2625 0 4.5-0.23835 1.2375-0.43337 0.225-0.43337-2.25zm-229.04 0c0-1.925 0.2058-2.7125 0.45733-1.75 0.25152 0.9625 0.25152 2.5375 0 3.5-0.25153 0.9625-0.45733 0.175-0.45733-1.75zm188.08-3.5c6e-3 -3.3 0.1923-4.5294 0.41486-2.7321s0.21797 4.4974-0.0102 6c-0.22818 1.5026-0.41027 0.0321-0.40466-3.2679zm53.341 4.032c-0.30982-0.80739-0.22638-1.6762 0.18543-1.9307s0.81419 0.40608 0.89418 1.468c0.17299 2.2966-0.29838 2.4986-1.0796 0.46275zm-253.65-1.091c0-0.85746 0.45-1.2809 1-0.94098s1 1.0415 1 1.559-0.45 0.94098-1 0.94098-1-0.70156-1-1.559zm67-0.5c0-0.58246-0.36858-0.83122-0.81906-0.55281s-0.6244-0.82003-0.3865-2.441c0.23791-1.621 0.85804-2.9472 1.3781-2.9472 0.52003 0 0.63965 0.4949 0.26582 1.0998-0.47771 0.77295-0.0495 0.76249 1.441-0.0352 2.3764-1.2718 2.8795-2.293 0.72183-1.465-2.6461 1.0154-2.6169-1.442 0.042-3.5335 2.6544-2.088 4.1487-2.1563 2.898-0.1326-0.36256 0.5866-1.3076 1.0665-2.1002 1.0665s-1.441 0.47656-1.441 1.059 0.41891 0.80012 0.9309 0.48369c1.317-0.81393 2.3371 1.1915 1.3732 2.6994-0.44226 0.69186-1.4791 1.2579-2.3041 1.2579-0.95947 0-1.4142 0.8108-1.2618 2.25 0.13102 1.2375 0.0185 2.25-0.25 2.25-0.26852 0-0.48821-0.47656-0.48821-1.059zm106.23-5.1186c0.0789-3.4633 0.36795-4.5394 0.87303-3.25 1.091 2.785 1.0591 8.4276-0.0476 8.4276-0.51883 0-0.89025-2.3299-0.82538-5.1776zm-30.132 1.4276c0.0548-0.9625 0.46965-2.875 0.92184-4.25 0.667-2.0282 0.78973-1.6982 0.65032 1.7485-0.0945 2.3367-0.50934 4.2492-0.92184 4.25-0.4125 8.1e-4 -0.70514-0.78603-0.65032-1.7485zm83.403-0.14584c0.63043-1.1057 0.19325-1.2701-2.1033-0.79109l-2.8992 0.60475 3-1.3714c3.1717-1.4499 4.7414-0.30974 2.4658 1.7911-0.97639 0.9014-1.0805 0.849-0.46335-0.23334zm-212.5-0.99651c0-0.67413-0.45-0.94757-1-0.60765s-1-0.17995-1-1.1553c0-1.6651 0.10317-1.6701 1.6905-0.0828 0.92976 0.92977 1.3798 2.0012 1 2.381-0.37977 0.37973-0.69048 0.13889-0.69048-0.53524zm237-1.1076c0-1.8667 0.26667-2.1333 1.2-1.2s0.93333 1.4667 0 2.4-1.2 0.66667-1.2-1.2zm-166.08-0.12569c1.3867-0.53605 2.7938-0.56094 3.2965-0.0583 0.50265 0.50265-0.53012 0.90187-2.4195 0.93528-3.0852 0.0546-3.1414-2e-3 -0.87698-0.87698zm55.445-2.5049c0.30795-2.1282 0.5769-3.9819 0.59767-4.1194 0.11072-0.73285 3.0124-0.10012 3.5531 0.77478 0.34834 0.56362 0.2624 0.96033-0.19098 0.88158-2.3182-0.40272-3.1222 0.33038-2.8711 2.618 0.15241 1.3884-0.15617 2.7921-0.68572 3.1194-0.58798 0.36339-0.74485-0.91136-0.40293-3.2743zm9.6354 1.9185c0-0.54002 0.9-2.0196 2-3.2879s2-1.9706 2-1.5607c0 0.40991-0.9 1.8894-2 3.2879s-2 2.1008-2 1.5607zm72.079-0.8712c0.048-1.165 0.28494-1.4019 0.60416-0.60417 0.28887 0.72187 0.25335 1.5844-0.0789 1.9167-0.33229 0.33229-0.56864-0.25834-0.52522-1.3125zm19 0c0.048-1.165 0.28494-1.4019 0.60416-0.60417 0.28887 0.72187 0.25335 1.5844-0.0789 1.9167-0.33229 0.33229-0.56864-0.25834-0.52522-1.3125zm52.395 0.54052c-0.32537-0.52646-1.5775-0.97087-2.7826-0.9876-1.8964-0.0263-1.9673-0.16097-0.52692-1.0016 1.9827-1.1571 5.0982-0.20138 4.181 1.2826-0.41767 0.67581 0.26453 0.81318 1.9445 0.39154 1.4233-0.35723 2.7966-0.31036 3.0517 0.10416s-0.82765 0.8469-2.4062 0.96086c-1.5785 0.11395-3.1362-0.22355-3.4616-0.75zm-220.63-0.444c-1.3263-1.3263 1.6684-5.4424 3.8314-5.2662 1.1978 0.0975 1.9403 0.56182 1.6499 1.0317-0.29042 0.46992-0.76155 0.62088-1.047 0.33548-0.62894-0.62894-2.7936 1.4242-3.3909 3.2162-0.23735 0.71205-0.70686 1.0193-1.0434 0.68283zm7.1535-0.50567c-0.825-0.52903-2.3438-0.69893-3.3752-0.37756-1.2878 0.40128-1.6452 0.21214-1.1409-0.60385 0.4107-0.66453 1.7376-0.93636 3.0108-0.6168 1.3897 0.34879 2.7547-5e-3 3.5042-0.90797 1.2762-1.5378 3.0011-1.1558 3.0011 0.66467 0 0.57638-0.66059 0.79448-1.468 0.48465-0.80739-0.30982-1.7129-0.16702-2.0122 0.31733-0.29935 0.48436 0.24874 1.0875 1.218 1.3403 1.2349 0.32213 1.3134 0.48981 0.26224 0.56037-0.825 0.0554-2.175-0.33215-3-0.86117zm73 0.58354c0-0.19039 0.675-0.90637 1.5-1.5911 0.86459-0.71755 1.5-0.81474 1.5-0.22943 0 0.5585-0.675 1.2745-1.5 1.5911-0.825 0.31658-1.5 0.41982-1.5 0.22943zm7.6027-1.0928c-1.0435-0.78878-2.281-1.197-2.75-0.90716s-0.85268-0.20113-0.85268-1.091-0.45-1.3399-1-1-1 0.16944-1-0.37883c0-0.54828 0.86886-0.93142 1.9308-0.85143 1.0619 0.08 1.9086 0.38953 1.8816 0.68785-0.18107 1.9952 0.38386 2.162 1.6379 0.48354 1.415-1.894 1.4374-1.8898 0.91938 0.17116-0.38496 1.5317 0.0178 2.2558 1.4654 2.6343 1.098 0.28713 2.4245 0.0939 2.9478-0.4295 0.60206-0.60206 1.1436-0.45099 1.4745 0.41133 0.7303 1.9031-4.2279 2.1041-6.6547 0.26977zm-145.58-0.51087c1.0492-0.64841 5.9795-0.15468 5.9795 0.59879 0 0.19413-1.5949 0.29301-3.5442 0.21973-1.9493-0.0733-3.0452-0.44162-2.4354-0.81852zm269.98-0.48734c0.68469-0.825 0.85229-1.5069 0.37244-1.5153-1.966-0.0345 2.3035-1.9553 4.3776-1.9694 2.5871-0.0176 3.0079 1.4799 0.66821 2.3777-2.3712 0.9099-3.1152 0.7037-1.4182-0.39301 1.302-0.84143 1.2832-0.9714-0.14301-0.98469-1.9868-0.0185-3.2293 2.6583-1.5508 3.3411 0.6566 0.26712 0.12622 0.52119-1.1786 0.56461-1.9984 0.0665-2.1762-0.15756-1.1276-1.421zm-121-0.39235c0-0.67413-0.51953-0.9046-1.1545-0.51216-0.74421 0.45995-0.88179 0.27227-0.38713-0.52811 0.54526-0.88225 1.0772-0.9318 1.8378-0.17118 0.58876 0.58876 0.76297 1.378 0.38713 1.7538-0.37583 0.37583-0.68333 0.13178-0.68333-0.54235zm52.75 0.23007c0.6875-0.27741 1.25-0.94344 1.25-1.4801s-0.45-0.69757-1-0.35765-1 0.10398-1-0.52432c0-1.73 2.4533-0.55067 2.8233 1.3572 0.21026 1.0841-0.31428 1.6395-1.5 1.5882-1.0504-0.0455-1.2935-0.29274-0.57332-0.58333zm11.68-0.45127c-0.29353-0.47495 0.11916-0.61302 0.91709-0.30682 0.79793 0.30619 1.6988 0.15543 2.0019-0.33503s-1.7783-0.99803-4.6253-1.1279c-7.5413-0.3441-7.1624-1.1167 0.54764-1.1167 5.8413 0 6.5882 0.21667 6.4633 1.875-0.14636 1.943-4.2458 2.7247-5.3046 1.0114zm53.781-0.28559c0.70919-0.76953 1.447-1.2495 1.6396-1.0665 0.59314 0.56346-0.91014 2.4657-1.9486 2.4657-0.53923 0-0.40017-0.62961 0.30901-1.3991zm12.539 0.70981c-0.9625-0.25152-1.75-0.87432-1.75-1.384 0-1.3093 1.1858-1.1007 3.4411 0.60512 1.9431 1.4697 1.5845 1.6349-1.6911 0.77887zm-214.75-2.3107c0-0.55 0.47656-1 1.059-1s0.7809 0.45 0.44098 1-0.81648 1-1.059 1-0.44098-0.45-0.44098-1zm170.55-0.0871c0.22531-0.36457 1.5347-0.66286 2.9097-0.66286s2.2609 0.38686 1.9687 0.8597c-0.29222 0.47283-1.6016 0.77112-2.9097 0.66286-1.3081-0.10827-2.194-0.49513-1.9687-0.8597z" fill="#021c4d" />
</svg>